%TF.GenerationSoftware,KiCad,Pcbnew,9.0.7*%
%TF.CreationDate,2026-06-06T14:19:03+02:00*%
%TF.ProjectId,MacroPadv1-HackClub,4d616372-6f50-4616-9476-312d4861636b,rev?*%
%TF.SameCoordinates,Original*%
%TF.FileFunction,Profile,NP*%
%FSLAX46Y46*%
G04 Gerber Fmt 4.6, Leading zero omitted, Abs format (unit mm)*
G04 Created by KiCad (PCBNEW 9.0.7) date 2026-06-06 14:19:03*
%MOMM*%
%LPD*%
G01*
G04 APERTURE LIST*
%TA.AperFunction,Profile*%
%ADD10C,0.050000*%
%TD*%
%TA.AperFunction,Profile*%
%ADD11C,0.100000*%
%TD*%
G04 APERTURE END LIST*
D10*
X90630000Y-50990000D02*
X167290000Y-50990000D01*
X167290000Y-177220000D01*
X90630000Y-177220000D01*
X90630000Y-50990000D01*
D11*
%TO.C,D1*%
X98590001Y-74587158D02*
X98590001Y-75992842D01*
X99495548Y-76790000D02*
X101084452Y-76790000D01*
X101084452Y-73790001D02*
X99495547Y-73790001D01*
X101989999Y-75992842D02*
X101989999Y-74587158D01*
X98540516Y-74370280D02*
G75*
G02*
X98590019Y-74587157I-450516J-216921D01*
G01*
X98540516Y-74370280D02*
G75*
G02*
X99243289Y-73721702I450515J216877D01*
G01*
X98590001Y-75992842D02*
G75*
G02*
X98540515Y-76209719I-499991J1D01*
G01*
X99243289Y-76858299D02*
G75*
G02*
X98540519Y-76209720I-252259J431698D01*
G01*
X99243289Y-76858299D02*
G75*
G02*
X99495548Y-76790001I252251J-431682D01*
G01*
X99495547Y-73790001D02*
G75*
G02*
X99243289Y-73721702I3J500010D01*
G01*
X101084452Y-76790000D02*
G75*
G02*
X101336710Y-76858299I-3J-500009D01*
G01*
X101336711Y-73721701D02*
G75*
G02*
X101084453Y-73790000I-252253J431683D01*
G01*
X101336711Y-73721701D02*
G75*
G02*
X102039484Y-74370280I252258J-431701D01*
G01*
X101989999Y-74587158D02*
G75*
G02*
X102039484Y-74370280I499990J2D01*
G01*
X102039484Y-76209720D02*
G75*
G02*
X101336711Y-76858297I-450515J-216877D01*
G01*
X102039484Y-76209720D02*
G75*
G02*
X101989999Y-75992843I450505J216876D01*
G01*
%TO.C,D12*%
X156120001Y-126817158D02*
X156120001Y-128222842D01*
X157025548Y-129020000D02*
X158614452Y-129020000D01*
X158614452Y-126020001D02*
X157025547Y-126020001D01*
X159519999Y-128222842D02*
X159519999Y-126817158D01*
X156070516Y-126600280D02*
G75*
G02*
X156120019Y-126817157I-450516J-216921D01*
G01*
X156070516Y-126600280D02*
G75*
G02*
X156773289Y-125951702I450515J216877D01*
G01*
X156120001Y-128222842D02*
G75*
G02*
X156070515Y-128439719I-499991J1D01*
G01*
X156773289Y-129088299D02*
G75*
G02*
X156070519Y-128439720I-252259J431698D01*
G01*
X156773289Y-129088299D02*
G75*
G02*
X157025548Y-129020001I252251J-431682D01*
G01*
X157025547Y-126020001D02*
G75*
G02*
X156773289Y-125951702I3J500010D01*
G01*
X158614452Y-129020000D02*
G75*
G02*
X158866710Y-129088299I-3J-500009D01*
G01*
X158866711Y-125951701D02*
G75*
G02*
X158614453Y-126020000I-252253J431683D01*
G01*
X158866711Y-125951701D02*
G75*
G02*
X159569484Y-126600280I252258J-431701D01*
G01*
X159519999Y-126817158D02*
G75*
G02*
X159569484Y-126600280I499990J2D01*
G01*
X159569484Y-128439720D02*
G75*
G02*
X158866711Y-129088297I-450515J-216877D01*
G01*
X159569484Y-128439720D02*
G75*
G02*
X159519999Y-128222843I450505J216876D01*
G01*
%TO.C,D9*%
X98600001Y-126817158D02*
X98600001Y-128222842D01*
X99505548Y-129020000D02*
X101094452Y-129020000D01*
X101094452Y-126020001D02*
X99505547Y-126020001D01*
X101999999Y-128222842D02*
X101999999Y-126817158D01*
X98550516Y-126600280D02*
G75*
G02*
X98600019Y-126817157I-450516J-216921D01*
G01*
X98550516Y-126600280D02*
G75*
G02*
X99253289Y-125951702I450515J216877D01*
G01*
X98600001Y-128222842D02*
G75*
G02*
X98550515Y-128439719I-499991J1D01*
G01*
X99253289Y-129088299D02*
G75*
G02*
X98550519Y-128439720I-252259J431698D01*
G01*
X99253289Y-129088299D02*
G75*
G02*
X99505548Y-129020001I252251J-431682D01*
G01*
X99505547Y-126020001D02*
G75*
G02*
X99253289Y-125951702I3J500010D01*
G01*
X101094452Y-129020000D02*
G75*
G02*
X101346710Y-129088299I-3J-500009D01*
G01*
X101346711Y-125951701D02*
G75*
G02*
X101094453Y-126020000I-252253J431683D01*
G01*
X101346711Y-125951701D02*
G75*
G02*
X102049484Y-126600280I252258J-431701D01*
G01*
X101999999Y-126817158D02*
G75*
G02*
X102049484Y-126600280I499990J2D01*
G01*
X102049484Y-128439720D02*
G75*
G02*
X101346711Y-129088297I-450515J-216877D01*
G01*
X102049484Y-128439720D02*
G75*
G02*
X101999999Y-128222843I450505J216876D01*
G01*
%TO.C,D16*%
X156180001Y-152927158D02*
X156180001Y-154332842D01*
X157085548Y-155130000D02*
X158674452Y-155130000D01*
X158674452Y-152130001D02*
X157085547Y-152130001D01*
X159579999Y-154332842D02*
X159579999Y-152927158D01*
X156130516Y-152710280D02*
G75*
G02*
X156180019Y-152927157I-450516J-216921D01*
G01*
X156130516Y-152710280D02*
G75*
G02*
X156833289Y-152061702I450515J216877D01*
G01*
X156180001Y-154332842D02*
G75*
G02*
X156130515Y-154549719I-499991J1D01*
G01*
X156833289Y-155198299D02*
G75*
G02*
X156130519Y-154549720I-252259J431698D01*
G01*
X156833289Y-155198299D02*
G75*
G02*
X157085548Y-155130001I252251J-431682D01*
G01*
X157085547Y-152130001D02*
G75*
G02*
X156833289Y-152061702I3J500010D01*
G01*
X158674452Y-155130000D02*
G75*
G02*
X158926710Y-155198299I-3J-500009D01*
G01*
X158926711Y-152061701D02*
G75*
G02*
X158674453Y-152130000I-252253J431683D01*
G01*
X158926711Y-152061701D02*
G75*
G02*
X159629484Y-152710280I252258J-431701D01*
G01*
X159579999Y-152927158D02*
G75*
G02*
X159629484Y-152710280I499990J2D01*
G01*
X159629484Y-154549720D02*
G75*
G02*
X158926711Y-155198297I-450515J-216877D01*
G01*
X159629484Y-154549720D02*
G75*
G02*
X159579999Y-154332843I450505J216876D01*
G01*
%TO.C,D4*%
X156140001Y-74587158D02*
X156140001Y-75992842D01*
X157045548Y-76790000D02*
X158634452Y-76790000D01*
X158634452Y-73790001D02*
X157045547Y-73790001D01*
X159539999Y-75992842D02*
X159539999Y-74587158D01*
X156090516Y-74370280D02*
G75*
G02*
X156140019Y-74587157I-450516J-216921D01*
G01*
X156090516Y-74370280D02*
G75*
G02*
X156793289Y-73721702I450515J216877D01*
G01*
X156140001Y-75992842D02*
G75*
G02*
X156090515Y-76209719I-499991J1D01*
G01*
X156793289Y-76858299D02*
G75*
G02*
X156090519Y-76209720I-252259J431698D01*
G01*
X156793289Y-76858299D02*
G75*
G02*
X157045548Y-76790001I252251J-431682D01*
G01*
X157045547Y-73790001D02*
G75*
G02*
X156793289Y-73721702I3J500010D01*
G01*
X158634452Y-76790000D02*
G75*
G02*
X158886710Y-76858299I-3J-500009D01*
G01*
X158886711Y-73721701D02*
G75*
G02*
X158634453Y-73790000I-252253J431683D01*
G01*
X158886711Y-73721701D02*
G75*
G02*
X159589484Y-74370280I252258J-431701D01*
G01*
X159539999Y-74587158D02*
G75*
G02*
X159589484Y-74370280I499990J2D01*
G01*
X159589484Y-76209720D02*
G75*
G02*
X158886711Y-76858297I-450515J-216877D01*
G01*
X159589484Y-76209720D02*
G75*
G02*
X159539999Y-75992843I450505J216876D01*
G01*
%TO.C,D8*%
X156060001Y-100597158D02*
X156060001Y-102002842D01*
X156965548Y-102800000D02*
X158554452Y-102800000D01*
X158554452Y-99800001D02*
X156965547Y-99800001D01*
X159459999Y-102002842D02*
X159459999Y-100597158D01*
X156010516Y-100380280D02*
G75*
G02*
X156060019Y-100597157I-450516J-216921D01*
G01*
X156010516Y-100380280D02*
G75*
G02*
X156713289Y-99731702I450515J216877D01*
G01*
X156060001Y-102002842D02*
G75*
G02*
X156010515Y-102219719I-499991J1D01*
G01*
X156713289Y-102868299D02*
G75*
G02*
X156010519Y-102219720I-252259J431698D01*
G01*
X156713289Y-102868299D02*
G75*
G02*
X156965548Y-102800001I252251J-431682D01*
G01*
X156965547Y-99800001D02*
G75*
G02*
X156713289Y-99731702I3J500010D01*
G01*
X158554452Y-102800000D02*
G75*
G02*
X158806710Y-102868299I-3J-500009D01*
G01*
X158806711Y-99731701D02*
G75*
G02*
X158554453Y-99800000I-252253J431683D01*
G01*
X158806711Y-99731701D02*
G75*
G02*
X159509484Y-100380280I252258J-431701D01*
G01*
X159459999Y-100597158D02*
G75*
G02*
X159509484Y-100380280I499990J2D01*
G01*
X159509484Y-102219720D02*
G75*
G02*
X158806711Y-102868297I-450515J-216877D01*
G01*
X159509484Y-102219720D02*
G75*
G02*
X159459999Y-102002843I450505J216876D01*
G01*
%TO.C,D3*%
X137120001Y-74587158D02*
X137120001Y-75992842D01*
X138025548Y-76790000D02*
X139614452Y-76790000D01*
X139614452Y-73790001D02*
X138025547Y-73790001D01*
X140519999Y-75992842D02*
X140519999Y-74587158D01*
X137070516Y-74370280D02*
G75*
G02*
X137120019Y-74587157I-450516J-216921D01*
G01*
X137070516Y-74370280D02*
G75*
G02*
X137773289Y-73721702I450515J216877D01*
G01*
X137120001Y-75992842D02*
G75*
G02*
X137070515Y-76209719I-499991J1D01*
G01*
X137773289Y-76858299D02*
G75*
G02*
X137070519Y-76209720I-252259J431698D01*
G01*
X137773289Y-76858299D02*
G75*
G02*
X138025548Y-76790001I252251J-431682D01*
G01*
X138025547Y-73790001D02*
G75*
G02*
X137773289Y-73721702I3J500010D01*
G01*
X139614452Y-76790000D02*
G75*
G02*
X139866710Y-76858299I-3J-500009D01*
G01*
X139866711Y-73721701D02*
G75*
G02*
X139614453Y-73790000I-252253J431683D01*
G01*
X139866711Y-73721701D02*
G75*
G02*
X140569484Y-74370280I252258J-431701D01*
G01*
X140519999Y-74587158D02*
G75*
G02*
X140569484Y-74370280I499990J2D01*
G01*
X140569484Y-76209720D02*
G75*
G02*
X139866711Y-76858297I-450515J-216877D01*
G01*
X140569484Y-76209720D02*
G75*
G02*
X140519999Y-75992843I450505J216876D01*
G01*
%TO.C,D2*%
X117912501Y-74624657D02*
X117912501Y-76030341D01*
X118818048Y-76827499D02*
X120406952Y-76827499D01*
X120406952Y-73827500D02*
X118818047Y-73827500D01*
X121312499Y-76030341D02*
X121312499Y-74624657D01*
X117863016Y-74407779D02*
G75*
G02*
X117912519Y-74624656I-450516J-216921D01*
G01*
X117863016Y-74407779D02*
G75*
G02*
X118565789Y-73759201I450515J216877D01*
G01*
X117912501Y-76030341D02*
G75*
G02*
X117863015Y-76247218I-499991J1D01*
G01*
X118565789Y-76895798D02*
G75*
G02*
X117863019Y-76247219I-252259J431698D01*
G01*
X118565789Y-76895798D02*
G75*
G02*
X118818048Y-76827500I252251J-431682D01*
G01*
X118818047Y-73827500D02*
G75*
G02*
X118565789Y-73759201I3J500010D01*
G01*
X120406952Y-76827499D02*
G75*
G02*
X120659210Y-76895798I-3J-500009D01*
G01*
X120659211Y-73759200D02*
G75*
G02*
X120406953Y-73827499I-252253J431683D01*
G01*
X120659211Y-73759200D02*
G75*
G02*
X121361984Y-74407779I252258J-431701D01*
G01*
X121312499Y-74624657D02*
G75*
G02*
X121361984Y-74407779I499990J2D01*
G01*
X121361984Y-76247219D02*
G75*
G02*
X120659211Y-76895796I-450515J-216877D01*
G01*
X121361984Y-76247219D02*
G75*
G02*
X121312499Y-76030342I450505J216876D01*
G01*
%TO.C,D5*%
X98710001Y-100597158D02*
X98710001Y-102002842D01*
X99615548Y-102800000D02*
X101204452Y-102800000D01*
X101204452Y-99800001D02*
X99615547Y-99800001D01*
X102109999Y-102002842D02*
X102109999Y-100597158D01*
X98660516Y-100380280D02*
G75*
G02*
X98710019Y-100597157I-450516J-216921D01*
G01*
X98660516Y-100380280D02*
G75*
G02*
X99363289Y-99731702I450515J216877D01*
G01*
X98710001Y-102002842D02*
G75*
G02*
X98660515Y-102219719I-499991J1D01*
G01*
X99363289Y-102868299D02*
G75*
G02*
X98660519Y-102219720I-252259J431698D01*
G01*
X99363289Y-102868299D02*
G75*
G02*
X99615548Y-102800001I252251J-431682D01*
G01*
X99615547Y-99800001D02*
G75*
G02*
X99363289Y-99731702I3J500010D01*
G01*
X101204452Y-102800000D02*
G75*
G02*
X101456710Y-102868299I-3J-500009D01*
G01*
X101456711Y-99731701D02*
G75*
G02*
X101204453Y-99800000I-252253J431683D01*
G01*
X101456711Y-99731701D02*
G75*
G02*
X102159484Y-100380280I252258J-431701D01*
G01*
X102109999Y-100597158D02*
G75*
G02*
X102159484Y-100380280I499990J2D01*
G01*
X102159484Y-102219720D02*
G75*
G02*
X101456711Y-102868297I-450515J-216877D01*
G01*
X102159484Y-102219720D02*
G75*
G02*
X102109999Y-102002843I450505J216876D01*
G01*
%TO.C,D11*%
X136970001Y-126787158D02*
X136970001Y-128192842D01*
X137875548Y-128990000D02*
X139464452Y-128990000D01*
X139464452Y-125990001D02*
X137875547Y-125990001D01*
X140369999Y-128192842D02*
X140369999Y-126787158D01*
X136920516Y-126570280D02*
G75*
G02*
X136970019Y-126787157I-450516J-216921D01*
G01*
X136920516Y-126570280D02*
G75*
G02*
X137623289Y-125921702I450515J216877D01*
G01*
X136970001Y-128192842D02*
G75*
G02*
X136920515Y-128409719I-499991J1D01*
G01*
X137623289Y-129058299D02*
G75*
G02*
X136920519Y-128409720I-252259J431698D01*
G01*
X137623289Y-129058299D02*
G75*
G02*
X137875548Y-128990001I252251J-431682D01*
G01*
X137875547Y-125990001D02*
G75*
G02*
X137623289Y-125921702I3J500010D01*
G01*
X139464452Y-128990000D02*
G75*
G02*
X139716710Y-129058299I-3J-500009D01*
G01*
X139716711Y-125921701D02*
G75*
G02*
X139464453Y-125990000I-252253J431683D01*
G01*
X139716711Y-125921701D02*
G75*
G02*
X140419484Y-126570280I252258J-431701D01*
G01*
X140369999Y-126787158D02*
G75*
G02*
X140419484Y-126570280I499990J2D01*
G01*
X140419484Y-128409720D02*
G75*
G02*
X139716711Y-129058297I-450515J-216877D01*
G01*
X140419484Y-128409720D02*
G75*
G02*
X140369999Y-128192843I450505J216876D01*
G01*
%TO.C,D15*%
X136920001Y-152957158D02*
X136920001Y-154362842D01*
X137825548Y-155160000D02*
X139414452Y-155160000D01*
X139414452Y-152160001D02*
X137825547Y-152160001D01*
X140319999Y-154362842D02*
X140319999Y-152957158D01*
X136870516Y-152740280D02*
G75*
G02*
X136920019Y-152957157I-450516J-216921D01*
G01*
X136870516Y-152740280D02*
G75*
G02*
X137573289Y-152091702I450515J216877D01*
G01*
X136920001Y-154362842D02*
G75*
G02*
X136870515Y-154579719I-499991J1D01*
G01*
X137573289Y-155228299D02*
G75*
G02*
X136870519Y-154579720I-252259J431698D01*
G01*
X137573289Y-155228299D02*
G75*
G02*
X137825548Y-155160001I252251J-431682D01*
G01*
X137825547Y-152160001D02*
G75*
G02*
X137573289Y-152091702I3J500010D01*
G01*
X139414452Y-155160000D02*
G75*
G02*
X139666710Y-155228299I-3J-500009D01*
G01*
X139666711Y-152091701D02*
G75*
G02*
X139414453Y-152160000I-252253J431683D01*
G01*
X139666711Y-152091701D02*
G75*
G02*
X140369484Y-152740280I252258J-431701D01*
G01*
X140319999Y-152957158D02*
G75*
G02*
X140369484Y-152740280I499990J2D01*
G01*
X140369484Y-154579720D02*
G75*
G02*
X139666711Y-155228297I-450515J-216877D01*
G01*
X140369484Y-154579720D02*
G75*
G02*
X140319999Y-154362843I450505J216876D01*
G01*
%TO.C,D14*%
X117730001Y-152957158D02*
X117730001Y-154362842D01*
X118635548Y-155160000D02*
X120224452Y-155160000D01*
X120224452Y-152160001D02*
X118635547Y-152160001D01*
X121129999Y-154362842D02*
X121129999Y-152957158D01*
X117680516Y-152740280D02*
G75*
G02*
X117730019Y-152957157I-450516J-216921D01*
G01*
X117680516Y-152740280D02*
G75*
G02*
X118383289Y-152091702I450515J216877D01*
G01*
X117730001Y-154362842D02*
G75*
G02*
X117680515Y-154579719I-499991J1D01*
G01*
X118383289Y-155228299D02*
G75*
G02*
X117680519Y-154579720I-252259J431698D01*
G01*
X118383289Y-155228299D02*
G75*
G02*
X118635548Y-155160001I252251J-431682D01*
G01*
X118635547Y-152160001D02*
G75*
G02*
X118383289Y-152091702I3J500010D01*
G01*
X120224452Y-155160000D02*
G75*
G02*
X120476710Y-155228299I-3J-500009D01*
G01*
X120476711Y-152091701D02*
G75*
G02*
X120224453Y-152160000I-252253J431683D01*
G01*
X120476711Y-152091701D02*
G75*
G02*
X121179484Y-152740280I252258J-431701D01*
G01*
X121129999Y-152957158D02*
G75*
G02*
X121179484Y-152740280I499990J2D01*
G01*
X121179484Y-154579720D02*
G75*
G02*
X120476711Y-155228297I-450515J-216877D01*
G01*
X121179484Y-154579720D02*
G75*
G02*
X121129999Y-154362843I450505J216876D01*
G01*
%TO.C,D10*%
X117780001Y-126817158D02*
X117780001Y-128222842D01*
X118685548Y-129020000D02*
X120274452Y-129020000D01*
X120274452Y-126020001D02*
X118685547Y-126020001D01*
X121179999Y-128222842D02*
X121179999Y-126817158D01*
X117730516Y-126600280D02*
G75*
G02*
X117780019Y-126817157I-450516J-216921D01*
G01*
X117730516Y-126600280D02*
G75*
G02*
X118433289Y-125951702I450515J216877D01*
G01*
X117780001Y-128222842D02*
G75*
G02*
X117730515Y-128439719I-499991J1D01*
G01*
X118433289Y-129088299D02*
G75*
G02*
X117730519Y-128439720I-252259J431698D01*
G01*
X118433289Y-129088299D02*
G75*
G02*
X118685548Y-129020001I252251J-431682D01*
G01*
X118685547Y-126020001D02*
G75*
G02*
X118433289Y-125951702I3J500010D01*
G01*
X120274452Y-129020000D02*
G75*
G02*
X120526710Y-129088299I-3J-500009D01*
G01*
X120526711Y-125951701D02*
G75*
G02*
X120274453Y-126020000I-252253J431683D01*
G01*
X120526711Y-125951701D02*
G75*
G02*
X121229484Y-126600280I252258J-431701D01*
G01*
X121179999Y-126817158D02*
G75*
G02*
X121229484Y-126600280I499990J2D01*
G01*
X121229484Y-128439720D02*
G75*
G02*
X120526711Y-129088297I-450515J-216877D01*
G01*
X121229484Y-128439720D02*
G75*
G02*
X121179999Y-128222843I450505J216876D01*
G01*
%TO.C,D13*%
X98520001Y-152967158D02*
X98520001Y-154372842D01*
X99425548Y-155170000D02*
X101014452Y-155170000D01*
X101014452Y-152170001D02*
X99425547Y-152170001D01*
X101919999Y-154372842D02*
X101919999Y-152967158D01*
X98470516Y-152750280D02*
G75*
G02*
X98520019Y-152967157I-450516J-216921D01*
G01*
X98470516Y-152750280D02*
G75*
G02*
X99173289Y-152101702I450515J216877D01*
G01*
X98520001Y-154372842D02*
G75*
G02*
X98470515Y-154589719I-499991J1D01*
G01*
X99173289Y-155238299D02*
G75*
G02*
X98470519Y-154589720I-252259J431698D01*
G01*
X99173289Y-155238299D02*
G75*
G02*
X99425548Y-155170001I252251J-431682D01*
G01*
X99425547Y-152170001D02*
G75*
G02*
X99173289Y-152101702I3J500010D01*
G01*
X101014452Y-155170000D02*
G75*
G02*
X101266710Y-155238299I-3J-500009D01*
G01*
X101266711Y-152101701D02*
G75*
G02*
X101014453Y-152170000I-252253J431683D01*
G01*
X101266711Y-152101701D02*
G75*
G02*
X101969484Y-152750280I252258J-431701D01*
G01*
X101919999Y-152967158D02*
G75*
G02*
X101969484Y-152750280I499990J2D01*
G01*
X101969484Y-154589720D02*
G75*
G02*
X101266711Y-155238297I-450515J-216877D01*
G01*
X101969484Y-154589720D02*
G75*
G02*
X101919999Y-154372843I450505J216876D01*
G01*
%TO.C,D6*%
X117760001Y-100597158D02*
X117760001Y-102002842D01*
X118665548Y-102800000D02*
X120254452Y-102800000D01*
X120254452Y-99800001D02*
X118665547Y-99800001D01*
X121159999Y-102002842D02*
X121159999Y-100597158D01*
X117710516Y-100380280D02*
G75*
G02*
X117760019Y-100597157I-450516J-216921D01*
G01*
X117710516Y-100380280D02*
G75*
G02*
X118413289Y-99731702I450515J216877D01*
G01*
X117760001Y-102002842D02*
G75*
G02*
X117710515Y-102219719I-499991J1D01*
G01*
X118413289Y-102868299D02*
G75*
G02*
X117710519Y-102219720I-252259J431698D01*
G01*
X118413289Y-102868299D02*
G75*
G02*
X118665548Y-102800001I252251J-431682D01*
G01*
X118665547Y-99800001D02*
G75*
G02*
X118413289Y-99731702I3J500010D01*
G01*
X120254452Y-102800000D02*
G75*
G02*
X120506710Y-102868299I-3J-500009D01*
G01*
X120506711Y-99731701D02*
G75*
G02*
X120254453Y-99800000I-252253J431683D01*
G01*
X120506711Y-99731701D02*
G75*
G02*
X121209484Y-100380280I252258J-431701D01*
G01*
X121159999Y-100597158D02*
G75*
G02*
X121209484Y-100380280I499990J2D01*
G01*
X121209484Y-102219720D02*
G75*
G02*
X120506711Y-102868297I-450515J-216877D01*
G01*
X121209484Y-102219720D02*
G75*
G02*
X121159999Y-102002843I450505J216876D01*
G01*
%TO.C,D7*%
X136832501Y-100584658D02*
X136832501Y-101990342D01*
X137738048Y-102787500D02*
X139326952Y-102787500D01*
X139326952Y-99787501D02*
X137738047Y-99787501D01*
X140232499Y-101990342D02*
X140232499Y-100584658D01*
X136783016Y-100367780D02*
G75*
G02*
X136832519Y-100584657I-450516J-216921D01*
G01*
X136783016Y-100367780D02*
G75*
G02*
X137485789Y-99719202I450515J216877D01*
G01*
X136832501Y-101990342D02*
G75*
G02*
X136783015Y-102207219I-499991J1D01*
G01*
X137485789Y-102855799D02*
G75*
G02*
X136783019Y-102207220I-252259J431698D01*
G01*
X137485789Y-102855799D02*
G75*
G02*
X137738048Y-102787501I252251J-431682D01*
G01*
X137738047Y-99787501D02*
G75*
G02*
X137485789Y-99719202I3J500010D01*
G01*
X139326952Y-102787500D02*
G75*
G02*
X139579210Y-102855799I-3J-500009D01*
G01*
X139579211Y-99719201D02*
G75*
G02*
X139326953Y-99787500I-252253J431683D01*
G01*
X139579211Y-99719201D02*
G75*
G02*
X140281984Y-100367780I252258J-431701D01*
G01*
X140232499Y-100584658D02*
G75*
G02*
X140281984Y-100367780I499990J2D01*
G01*
X140281984Y-102207220D02*
G75*
G02*
X139579211Y-102855797I-450515J-216877D01*
G01*
X140281984Y-102207220D02*
G75*
G02*
X140232499Y-101990343I450505J216876D01*
G01*
%TD*%
M02*
