M48
; DRILL file {KiCad 9.0.6} date 2026-01-05T17:14:17+0100
; FORMAT={-:-/ absolute / inch / decimal}
; #@! TF.CreationDate,2026-01-05T17:14:17+01:00
; #@! TF.GenerationSoftware,Kicad,Pcbnew,9.0.6
; #@! TF.FileFunction,NonPlated,1,2,NPTH
FMAT,2
INCH
; #@! TA.AperFunction,NonPlated,NPTH,ComponentDrill
T1C0.0669
; #@! TA.AperFunction,NonPlated,NPTH,ComponentDrill
T2C0.1575
%
G90
G05
T1
X4.411Y-4.0178
X4.413Y-5.0071
X4.4142Y-6.0102
X4.4303Y-3.0119
X4.811Y-4.0178
X4.813Y-5.0071
X4.8142Y-6.0102
X4.8303Y-3.0119
X5.2079Y-5.0028
X5.2102Y-4.0174
X5.2122Y-6.0098
X5.2236Y-3.0091
X5.6079Y-5.0028
X5.6102Y-4.0174
X5.6122Y-6.0098
X5.6236Y-3.0091
X6.0008Y-6.0134
X6.0028Y-4.015
X6.0169Y-5.0028
X6.0225Y-3.0085
X6.4008Y-6.0134
X6.4028Y-4.015
X6.4169Y-5.0028
X6.4225Y-3.0085
X6.802Y-6.0134
X6.8035Y-4.0166
X6.8079Y-3.0095
X6.8169Y-5.0099
X7.202Y-6.0134
X7.2035Y-4.0166
X7.2079Y-3.0095
X7.2169Y-5.0099
T2
X4.611Y-4.0178
X4.613Y-5.0071
X4.6142Y-6.0102
X4.6303Y-3.0119
X5.4079Y-5.0028
X5.4102Y-4.0174
X5.4122Y-6.0098
X5.4236Y-3.0091
X6.2008Y-6.0134
X6.2028Y-4.015
X6.2169Y-5.0028
X6.2225Y-3.0085
X7.002Y-6.0134
X7.0035Y-4.0166
X7.0079Y-3.0095
X7.0169Y-5.0099
M30
