M48
; DRILL file {KiCad 9.0.7} date 2026-01-30T16:58:39+0100
; FORMAT={-:-/ absolute / inch / decimal}
; #@! TF.CreationDate,2026-01-30T16:58:39+01:00
; #@! TF.GenerationSoftware,Kicad,Pcbnew,9.0.7
; #@! TF.FileFunction,NonPlated,1,2,NPTH
FMAT,2
INCH
; #@! TA.AperFunction,NonPlated,NPTH,ComponentDrill
T1C0.0669
; #@! TA.AperFunction,NonPlated,NPTH,ComponentDrill
T2C0.1575
%
G90
G05
T1
X3.7477Y-6.6015
X3.7481Y-5.5735
X3.7509Y-4.5408
X3.7532Y-3.509
X4.1477Y-6.6015
X4.1481Y-5.5735
X4.1509Y-4.5408
X4.1532Y-3.509
X4.504Y-4.5397
X4.5048Y-5.5727
X4.5052Y-6.6015
X4.5072Y-3.509
X4.904Y-4.5397
X4.9048Y-5.5727
X4.9052Y-6.6015
X4.9072Y-3.509
X5.2568Y-4.5475
X5.258Y-6.6011
X5.2603Y-3.5097
X5.2603Y-5.5723
X5.6568Y-4.5475
X5.658Y-6.6011
X5.6603Y-3.5097
X5.6603Y-5.5723
X6.0095Y-4.5436
X6.0119Y-3.5113
X6.0143Y-6.6011
X6.0182Y-5.5727
X6.4095Y-4.5436
X6.4119Y-3.5113
X6.4143Y-6.6011
X6.4182Y-5.5727
T2
X3.9477Y-6.6015
X3.9481Y-5.5735
X3.9509Y-4.5408
X3.9532Y-3.509
X4.704Y-4.5397
X4.7048Y-5.5727
X4.7052Y-6.6015
X4.7072Y-3.509
X5.4568Y-4.5475
X5.458Y-6.6011
X5.4603Y-3.5097
X5.4603Y-5.5723
X6.2095Y-4.5436
X6.2119Y-3.5113
X6.2143Y-6.6011
X6.2182Y-5.5727
M30
