M48
; DRILL file {KiCad 9.0.7} date 2026-06-06T14:18:52+0200
; FORMAT={-:-/ absolute / inch / decimal}
; #@! TF.CreationDate,2026-06-06T14:18:52+02:00
; #@! TF.GenerationSoftware,Kicad,Pcbnew,9.0.7
; #@! TF.FileFunction,Plated,1,2,PTH
FMAT,2
INCH
; #@! TA.AperFunction,Plated,PTH,ViaDrill
T1C0.0118
; #@! TA.AperFunction,Plated,PTH,ComponentDrill
T2C0.0350
; #@! TA.AperFunction,Plated,PTH,ComponentDrill
T3C0.0591
%
G90
G05
T1
X4.1043Y-4.439
X4.1181Y-3.4114
X4.1319Y-5.4724
X4.8429Y-4.4445
X4.8535Y-3.4094
X4.8654Y-5.4724
X5.2295Y-3.0327
X5.5937Y-4.4445
X5.6008Y-3.413
X5.611Y-5.4705
X6.3472Y-4.4445
X6.3488Y-3.4079
X6.3513Y-5.474
T2
X4.8055Y-2.124
X4.8055Y-2.224
X4.8055Y-2.324
X4.8055Y-2.424
X4.8055Y-2.524
X4.8055Y-2.624
X4.8055Y-2.724
X5.4055Y-2.124
X5.4055Y-2.224
X5.4055Y-2.324
X5.4055Y-2.424
X5.4055Y-2.524
X5.4055Y-2.624
X5.4055Y-2.724
T3
X3.7977Y-6.5015
X3.7981Y-5.4735
X3.8009Y-4.4408
X3.8032Y-3.409
X4.0477Y-6.4015
X4.0481Y-5.3735
X4.0509Y-4.3408
X4.0532Y-3.309
X4.554Y-4.4397
X4.5548Y-5.4727
X4.5552Y-6.5015
X4.5572Y-3.409
X4.804Y-4.3397
X4.8048Y-5.3727
X4.8052Y-6.4015
X4.8072Y-3.309
X5.3068Y-4.4475
X5.308Y-6.5011
X5.3103Y-3.4097
X5.3103Y-5.4723
X5.5568Y-4.3475
X5.558Y-6.4011
X5.5603Y-3.3097
X5.5603Y-5.3723
X6.0595Y-4.4436
X6.0619Y-3.4113
X6.0643Y-6.5011
X6.0682Y-5.4727
X6.3095Y-4.3436
X6.3119Y-3.3113
X6.3143Y-6.4011
X6.3182Y-5.3727
M30
