%TF.GenerationSoftware,KiCad,Pcbnew,9.0.7*%
%TF.CreationDate,2026-01-30T16:58:35+01:00*%
%TF.ProjectId,MacroPadv1-HackClub,4d616372-6f50-4616-9476-312d4861636b,rev?*%
%TF.SameCoordinates,Original*%
%TF.FileFunction,Copper,L2,Bot*%
%TF.FilePolarity,Positive*%
%FSLAX46Y46*%
G04 Gerber Fmt 4.6, Leading zero omitted, Abs format (unit mm)*
G04 Created by KiCad (PCBNEW 9.0.7) date 2026-01-30 16:58:35*
%MOMM*%
%LPD*%
G01*
G04 APERTURE LIST*
%TA.AperFunction,ComponentPad*%
%ADD10C,2.200000*%
%TD*%
%TA.AperFunction,ComponentPad*%
%ADD11C,1.524000*%
%TD*%
%TA.AperFunction,ViaPad*%
%ADD12C,0.600000*%
%TD*%
%TA.AperFunction,Conductor*%
%ADD13C,0.200000*%
%TD*%
G04 APERTURE END LIST*
D10*
%TO.P,SW8,1,1*%
%TO.N,Net-(U1-GPIO0{slash}TX)*%
X160262500Y-110327500D03*
%TO.P,SW8,2,2*%
%TO.N,Net-(U1-GPIO2{slash}SCK)*%
X153912500Y-112867500D03*
%TD*%
%TO.P,SW14,1,1*%
%TO.N,Net-(U1-GPIO6{slash}SDA)*%
X122052500Y-162597500D03*
%TO.P,SW14,2,2*%
%TO.N,Net-(U1-GPIO3{slash}MOSI)*%
X115702500Y-165137500D03*
%TD*%
%TO.P,SW9,1,1*%
%TO.N,Net-(U1-GPIO29{slash}ADC3{slash}A3)*%
X102822500Y-136487500D03*
%TO.P,SW9,2,2*%
%TO.N,Net-(U1-GPIO4{slash}MISO)*%
X96472500Y-139027500D03*
%TD*%
%TO.P,SW2,1,1*%
%TO.N,Net-(U1-GPIO6{slash}SDA)*%
X122102500Y-84047500D03*
%TO.P,SW2,2,2*%
%TO.N,Net-(U1-GPIO1{slash}RX)*%
X115752500Y-86587500D03*
%TD*%
%TO.P,SW1,1,1*%
%TO.N,Net-(U1-GPIO29{slash}ADC3{slash}A3)*%
X102952500Y-84047500D03*
%TO.P,SW1,2,2*%
%TO.N,Net-(U1-GPIO1{slash}RX)*%
X96602500Y-86587500D03*
%TD*%
%TO.P,SW12,1,1*%
%TO.N,Net-(U1-GPIO0{slash}TX)*%
X160482500Y-136467500D03*
%TO.P,SW12,2,2*%
%TO.N,Net-(U1-GPIO4{slash}MISO)*%
X154132500Y-139007500D03*
%TD*%
%TO.P,SW11,1,1*%
%TO.N,Net-(U1-GPIO7{slash}SCL)*%
X141232500Y-136457500D03*
%TO.P,SW11,2,2*%
%TO.N,Net-(U1-GPIO4{slash}MISO)*%
X134882500Y-138997500D03*
%TD*%
%TO.P,SW16,1,1*%
%TO.N,Net-(U1-GPIO0{slash}TX)*%
X160382500Y-162587500D03*
%TO.P,SW16,2,2*%
%TO.N,Net-(U1-GPIO3{slash}MOSI)*%
X154032500Y-165127500D03*
%TD*%
%TO.P,SW10,1,1*%
%TO.N,Net-(U1-GPIO6{slash}SDA)*%
X122042500Y-136467500D03*
%TO.P,SW10,2,2*%
%TO.N,Net-(U1-GPIO4{slash}MISO)*%
X115692500Y-139007500D03*
%TD*%
%TO.P,SW5,1,1*%
%TO.N,Net-(U1-GPIO29{slash}ADC3{slash}A3)*%
X102892500Y-110257500D03*
%TO.P,SW5,2,2*%
%TO.N,Net-(U1-GPIO2{slash}SCK)*%
X96542500Y-112797500D03*
%TD*%
%TO.P,SW7,1,1*%
%TO.N,Net-(U1-GPIO7{slash}SCL)*%
X141142500Y-110427500D03*
%TO.P,SW7,2,2*%
%TO.N,Net-(U1-GPIO2{slash}SCK)*%
X134792500Y-112967500D03*
%TD*%
%TO.P,SW15,1,1*%
%TO.N,Net-(U1-GPIO7{slash}SCL)*%
X141172500Y-162587500D03*
%TO.P,SW15,2,2*%
%TO.N,Net-(U1-GPIO3{slash}MOSI)*%
X134822500Y-165127500D03*
%TD*%
%TO.P,SW3,1,1*%
%TO.N,Net-(U1-GPIO7{slash}SCL)*%
X141232500Y-84067500D03*
%TO.P,SW3,2,2*%
%TO.N,Net-(U1-GPIO1{slash}RX)*%
X134882500Y-86607500D03*
%TD*%
%TO.P,SW4,1,1*%
%TO.N,Net-(U1-GPIO0{slash}TX)*%
X160322500Y-84107500D03*
%TO.P,SW4,2,2*%
%TO.N,Net-(U1-GPIO1{slash}RX)*%
X153972500Y-86647500D03*
%TD*%
%TO.P,SW13,1,1*%
%TO.N,Net-(U1-GPIO29{slash}ADC3{slash}A3)*%
X102812500Y-162597500D03*
%TO.P,SW13,2,2*%
%TO.N,Net-(U1-GPIO3{slash}MOSI)*%
X96462500Y-165137500D03*
%TD*%
%TO.P,SW6,1,1*%
%TO.N,Net-(U1-GPIO6{slash}SDA)*%
X122022500Y-110227500D03*
%TO.P,SW6,2,2*%
%TO.N,Net-(U1-GPIO2{slash}SCK)*%
X115672500Y-112767500D03*
%TD*%
D11*
%TO.P,U1,1,GPIO26/ADC0/A0*%
%TO.N,unconnected-(U1-GPIO26{slash}ADC0{slash}A0-Pad1)*%
X122060000Y-53950000D03*
%TO.P,U1,2,GPIO27/ADC1/A1*%
%TO.N,unconnected-(U1-GPIO27{slash}ADC1{slash}A1-Pad2)*%
X122060000Y-56490000D03*
%TO.P,U1,3,GPIO28/ADC2/A2*%
%TO.N,Net-(D1-DIN)*%
X122060000Y-59030000D03*
%TO.P,U1,4,GPIO29/ADC3/A3*%
%TO.N,Net-(U1-GPIO29{slash}ADC3{slash}A3)*%
X122060000Y-61570000D03*
%TO.P,U1,5,GPIO6/SDA*%
%TO.N,Net-(U1-GPIO6{slash}SDA)*%
X122060000Y-64110000D03*
%TO.P,U1,6,GPIO7/SCL*%
%TO.N,Net-(U1-GPIO7{slash}SCL)*%
X122060000Y-66650000D03*
%TO.P,U1,7,GPIO0/TX*%
%TO.N,Net-(U1-GPIO0{slash}TX)*%
X122060000Y-69190000D03*
%TO.P,U1,8,GPIO1/RX*%
%TO.N,Net-(U1-GPIO1{slash}RX)*%
X137300000Y-69190000D03*
%TO.P,U1,9,GPIO2/SCK*%
%TO.N,Net-(U1-GPIO2{slash}SCK)*%
X137300000Y-66650000D03*
%TO.P,U1,10,GPIO4/MISO*%
%TO.N,Net-(U1-GPIO4{slash}MISO)*%
X137300000Y-64110000D03*
%TO.P,U1,11,GPIO3/MOSI*%
%TO.N,Net-(U1-GPIO3{slash}MOSI)*%
X137300000Y-61570000D03*
%TO.P,U1,12,3V3*%
%TO.N,unconnected-(U1-3V3-Pad12)*%
X137300000Y-59030000D03*
%TO.P,U1,13,GND*%
%TO.N,GND*%
X137300000Y-56490000D03*
%TO.P,U1,14,VBUS*%
%TO.N,+5V*%
X137300000Y-53950000D03*
%TD*%
D12*
%TO.N,GND*%
X132830000Y-77030000D03*
%TO.N,Net-(U1-GPIO1{slash}RX)*%
X161260000Y-86560000D03*
X123280000Y-86600000D03*
X142260000Y-86690000D03*
X104600000Y-86650000D03*
%TO.N,Net-(U1-GPIO4{slash}MISO)*%
X123580000Y-139000000D03*
X142520000Y-138950000D03*
X104950000Y-139000000D03*
X161322000Y-139040000D03*
%TO.N,Net-(U1-GPIO2{slash}SCK)*%
X161220000Y-112890000D03*
X123010000Y-112890000D03*
X142080000Y-112890000D03*
X104250000Y-112750000D03*
%TD*%
D13*
%TO.N,GND*%
X132830000Y-60960000D02*
X137300000Y-56490000D01*
X132830000Y-77030000D02*
X132830000Y-60960000D01*
%TO.N,Net-(U1-GPIO1{slash}RX)*%
X134882500Y-86607500D02*
X123287500Y-86607500D01*
X142302500Y-86647500D02*
X142260000Y-86690000D01*
X161723500Y-83527186D02*
X147386314Y-69190000D01*
X104662500Y-86587500D02*
X104600000Y-86650000D01*
X161260000Y-86560000D02*
X161723500Y-86096500D01*
X123287500Y-86607500D02*
X123280000Y-86600000D01*
X161723500Y-86096500D02*
X161723500Y-83527186D01*
X147386314Y-69190000D02*
X137300000Y-69190000D01*
X115752500Y-86587500D02*
X104662500Y-86587500D01*
X153972500Y-86647500D02*
X142302500Y-86647500D01*
%TO.N,Net-(U1-GPIO4{slash}MISO)*%
X134882500Y-138997500D02*
X123582500Y-138997500D01*
X161883500Y-138478500D02*
X161883500Y-118733500D01*
X123582500Y-138997500D02*
X123580000Y-139000000D01*
X153097100Y-64110000D02*
X137300000Y-64110000D01*
X162064500Y-112895443D02*
X162064500Y-90087970D01*
X163081000Y-86156043D02*
X163081000Y-74093900D01*
X162064500Y-90087970D02*
X161661500Y-89684970D01*
X161322000Y-139040000D02*
X161883500Y-138478500D01*
X161468943Y-118318943D02*
X161468943Y-113491000D01*
X115692500Y-139007500D02*
X104957500Y-139007500D01*
X154132500Y-139007500D02*
X142577500Y-139007500D01*
X161468943Y-113491000D02*
X162064500Y-112895443D01*
X161883500Y-118733500D02*
X161468943Y-118318943D01*
X161661500Y-87575543D02*
X163081000Y-86156043D01*
X104957500Y-139007500D02*
X104950000Y-139000000D01*
X142577500Y-139007500D02*
X142520000Y-138950000D01*
X161661500Y-89684970D02*
X161661500Y-87575543D01*
X163081000Y-74093900D02*
X153097100Y-64110000D01*
%TO.N,Net-(U1-GPIO3{slash}MOSI)*%
X159823814Y-165127500D02*
X161821500Y-163129814D01*
X115712500Y-165127500D02*
X115702500Y-165137500D01*
X115702500Y-165137500D02*
X96462500Y-165137500D01*
X154032500Y-165127500D02*
X159823814Y-165127500D01*
X154032500Y-165127500D02*
X134822500Y-165127500D01*
X164063500Y-138808030D02*
X164063500Y-74509300D01*
X161821500Y-141050030D02*
X164063500Y-138808030D01*
X161821500Y-163129814D02*
X161821500Y-141050030D01*
X164063500Y-74509300D02*
X151124200Y-61570000D01*
X151124200Y-61570000D02*
X137300000Y-61570000D01*
X134822500Y-165127500D02*
X115712500Y-165127500D01*
%TO.N,Net-(U1-GPIO2{slash}SCK)*%
X134792500Y-112967500D02*
X123087500Y-112967500D01*
X123087500Y-112967500D02*
X123010000Y-112890000D01*
X104267500Y-112767500D02*
X104250000Y-112750000D01*
X155070000Y-66650000D02*
X137300000Y-66650000D01*
X115672500Y-112767500D02*
X104267500Y-112767500D01*
X161663500Y-109747186D02*
X160835029Y-108918715D01*
X153912500Y-112867500D02*
X142102500Y-112867500D01*
X161220000Y-112890000D02*
X161663500Y-112446500D01*
X160835029Y-108918715D02*
X160835029Y-87834914D01*
X162680000Y-74260000D02*
X155070000Y-66650000D01*
X162680000Y-85989943D02*
X162680000Y-74260000D01*
X142102500Y-112867500D02*
X142080000Y-112890000D01*
X161663500Y-112446500D02*
X161663500Y-109747186D01*
X160835029Y-87834914D02*
X162680000Y-85989943D01*
%TO.N,Net-(U1-GPIO29{slash}ADC3{slash}A3)*%
X102952500Y-110197500D02*
X102892500Y-110257500D01*
X102892500Y-110257500D02*
X102892500Y-136417500D01*
X102952500Y-84047500D02*
X102952500Y-110197500D01*
X102822500Y-162587500D02*
X102812500Y-162597500D01*
X122060000Y-61570000D02*
X102952500Y-80677500D01*
X102892500Y-136417500D02*
X102822500Y-136487500D01*
X102952500Y-80677500D02*
X102952500Y-84047500D01*
X102822500Y-136487500D02*
X102822500Y-162587500D01*
%TO.N,Net-(U1-GPIO6{slash}SDA)*%
X122042500Y-110247500D02*
X122022500Y-110227500D01*
X122102500Y-71302910D02*
X120596000Y-69796410D01*
X122102500Y-84047500D02*
X122102500Y-71302910D01*
X122052500Y-162597500D02*
X122052500Y-136477500D01*
X120596000Y-65574000D02*
X122060000Y-64110000D01*
X122042500Y-136467500D02*
X122042500Y-110247500D01*
X122102500Y-110147500D02*
X122102500Y-84047500D01*
X122022500Y-110227500D02*
X122102500Y-110147500D01*
X122052500Y-136477500D02*
X122042500Y-136467500D01*
X120596000Y-69796410D02*
X120596000Y-65574000D01*
%TO.N,Net-(U1-GPIO7{slash}SCL)*%
X141142500Y-110427500D02*
X141142500Y-84157500D01*
X141172500Y-162587500D02*
X141172500Y-136517500D01*
X120997000Y-67713000D02*
X122060000Y-66650000D01*
X141232500Y-136457500D02*
X141232500Y-110517500D01*
X141232500Y-84067500D02*
X135434190Y-84067500D01*
X141232500Y-110517500D02*
X141142500Y-110427500D01*
X135434190Y-84067500D02*
X120997000Y-69630310D01*
X141172500Y-136517500D02*
X141232500Y-136457500D01*
X120997000Y-69630310D02*
X120997000Y-67713000D01*
X141142500Y-84157500D02*
X141232500Y-84067500D01*
%TO.N,Net-(U1-GPIO0{slash}TX)*%
X160382500Y-162587500D02*
X160382500Y-136567500D01*
X160262500Y-84167500D02*
X160322500Y-84107500D01*
X160262500Y-110327500D02*
X160262500Y-84167500D01*
X160482500Y-136467500D02*
X160482500Y-110547500D01*
X160382500Y-136567500D02*
X160482500Y-136467500D01*
X160482500Y-110547500D02*
X160262500Y-110327500D01*
X153846000Y-77631000D02*
X130501000Y-77631000D01*
X160322500Y-84107500D02*
X153846000Y-77631000D01*
X130501000Y-77631000D02*
X122060000Y-69190000D01*
%TD*%
M02*
