%TF.GenerationSoftware,KiCad,Pcbnew,9.0.6*%
%TF.CreationDate,2026-01-05T17:12:33+01:00*%
%TF.ProjectId,MacroPadv1-HackClub,4d616372-6f50-4616-9476-312d4861636b,rev?*%
%TF.SameCoordinates,Original*%
%TF.FileFunction,Copper,L2,Bot*%
%TF.FilePolarity,Positive*%
%FSLAX46Y46*%
G04 Gerber Fmt 4.6, Leading zero omitted, Abs format (unit mm)*
G04 Created by KiCad (PCBNEW 9.0.6) date 2026-01-05 17:12:33*
%MOMM*%
%LPD*%
G01*
G04 APERTURE LIST*
%TA.AperFunction,ComponentPad*%
%ADD10C,2.200000*%
%TD*%
%TA.AperFunction,ComponentPad*%
%ADD11C,1.524000*%
%TD*%
%TA.AperFunction,ViaPad*%
%ADD12C,0.600000*%
%TD*%
%TA.AperFunction,Conductor*%
%ADD13C,0.200000*%
%TD*%
G04 APERTURE END LIST*
D10*
%TO.P,SW5,1,1*%
%TO.N,Net-(U1-GPIO29{slash}ADC3{slash}A3)*%
X119660000Y-96971500D03*
%TO.P,SW5,2,2*%
%TO.N,Net-(U1-GPIO2{slash}SCK)*%
X113310000Y-99511500D03*
%TD*%
%TO.P,SW12,1,1*%
%TO.N,Net-(U1-GPIO0{slash}TX)*%
X180770000Y-122171500D03*
%TO.P,SW12,2,2*%
%TO.N,Net-(U1-GPIO4{slash}MISO)*%
X174420000Y-124711500D03*
%TD*%
%TO.P,SW15,1,1*%
%TO.N,Net-(U1-GPIO7{slash}SCL)*%
X160040000Y-147660000D03*
%TO.P,SW15,2,2*%
%TO.N,Net-(U1-GPIO3{slash}MOSI)*%
X153690000Y-150200000D03*
%TD*%
%TO.P,SW4,1,1*%
%TO.N,Net-(U1-GPIO0{slash}TX)*%
X180540000Y-71361500D03*
%TO.P,SW4,2,2*%
%TO.N,Net-(U1-GPIO1{slash}RX)*%
X174190000Y-73901500D03*
%TD*%
%TO.P,SW3,1,1*%
%TO.N,Net-(U1-GPIO7{slash}SCL)*%
X160592500Y-71336500D03*
%TO.P,SW3,2,2*%
%TO.N,Net-(U1-GPIO1{slash}RX)*%
X154242500Y-73876500D03*
%TD*%
%TO.P,SW1,1,1*%
%TO.N,Net-(U1-GPIO29{slash}ADC3{slash}A3)*%
X120150000Y-71421500D03*
%TO.P,SW1,2,2*%
%TO.N,Net-(U1-GPIO1{slash}RX)*%
X113800000Y-73961500D03*
%TD*%
%TO.P,SW16,1,1*%
%TO.N,Net-(U1-GPIO0{slash}TX)*%
X180390000Y-147660000D03*
%TO.P,SW16,2,2*%
%TO.N,Net-(U1-GPIO3{slash}MOSI)*%
X174040000Y-150200000D03*
%TD*%
D11*
%TO.P,U1,1,GPIO26/ADC0/A0*%
%TO.N,unconnected-(U1-GPIO26{slash}ADC0{slash}A0-Pad1)*%
X140390000Y-29450000D03*
%TO.P,U1,2,GPIO27/ADC1/A1*%
%TO.N,unconnected-(U1-GPIO27{slash}ADC1{slash}A1-Pad2)*%
X140390000Y-31990000D03*
%TO.P,U1,3,GPIO28/ADC2/A2*%
%TO.N,Net-(D1-DIN)*%
X140390000Y-34530000D03*
%TO.P,U1,4,GPIO29/ADC3/A3*%
%TO.N,Net-(U1-GPIO29{slash}ADC3{slash}A3)*%
X140390000Y-37070000D03*
%TO.P,U1,5,GPIO6/SDA*%
%TO.N,Net-(U1-GPIO6{slash}SDA)*%
X140390000Y-39610000D03*
%TO.P,U1,6,GPIO7/SCL*%
%TO.N,Net-(U1-GPIO7{slash}SCL)*%
X140390000Y-42150000D03*
%TO.P,U1,7,GPIO0/TX*%
%TO.N,Net-(U1-GPIO0{slash}TX)*%
X140390000Y-44690000D03*
%TO.P,U1,8,GPIO1/RX*%
%TO.N,Net-(U1-GPIO1{slash}RX)*%
X155630000Y-44690000D03*
%TO.P,U1,9,GPIO2/SCK*%
%TO.N,Net-(U1-GPIO2{slash}SCK)*%
X155630000Y-42150000D03*
%TO.P,U1,10,GPIO4/MISO*%
%TO.N,Net-(U1-GPIO4{slash}MISO)*%
X155630000Y-39610000D03*
%TO.P,U1,11,GPIO3/MOSI*%
%TO.N,Net-(U1-GPIO3{slash}MOSI)*%
X155630000Y-37070000D03*
%TO.P,U1,12,3V3*%
%TO.N,unconnected-(U1-3V3-Pad12)*%
X155630000Y-34530000D03*
%TO.P,U1,13,GND*%
%TO.N,GND*%
X155630000Y-31990000D03*
%TO.P,U1,14,VBUS*%
%TO.N,+5V*%
X155630000Y-29450000D03*
%TD*%
D10*
%TO.P,SW9,1,1*%
%TO.N,Net-(U1-GPIO29{slash}ADC3{slash}A3)*%
X119710000Y-122101500D03*
%TO.P,SW9,2,2*%
%TO.N,Net-(U1-GPIO4{slash}MISO)*%
X113360000Y-124641500D03*
%TD*%
%TO.P,SW10,1,1*%
%TO.N,Net-(U1-GPIO6{slash}SDA)*%
X139900000Y-121991500D03*
%TO.P,SW10,2,2*%
%TO.N,Net-(U1-GPIO4{slash}MISO)*%
X133550000Y-124531500D03*
%TD*%
%TO.P,SW14,1,1*%
%TO.N,Net-(U1-GPIO6{slash}SDA)*%
X140010000Y-147570000D03*
%TO.P,SW14,2,2*%
%TO.N,Net-(U1-GPIO3{slash}MOSI)*%
X133660000Y-150110000D03*
%TD*%
%TO.P,SW6,1,1*%
%TO.N,Net-(U1-GPIO6{slash}SDA)*%
X139960000Y-96961500D03*
%TO.P,SW6,2,2*%
%TO.N,Net-(U1-GPIO2{slash}SCK)*%
X133610000Y-99501500D03*
%TD*%
%TO.P,SW11,1,1*%
%TO.N,Net-(U1-GPIO7{slash}SCL)*%
X160450000Y-121991500D03*
%TO.P,SW11,2,2*%
%TO.N,Net-(U1-GPIO4{slash}MISO)*%
X154100000Y-124531500D03*
%TD*%
%TO.P,SW2,1,1*%
%TO.N,Net-(U1-GPIO6{slash}SDA)*%
X140300000Y-71351500D03*
%TO.P,SW2,2,2*%
%TO.N,Net-(U1-GPIO1{slash}RX)*%
X133950000Y-73891500D03*
%TD*%
%TO.P,SW13,1,1*%
%TO.N,Net-(U1-GPIO29{slash}ADC3{slash}A3)*%
X119740000Y-147580000D03*
%TO.P,SW13,2,2*%
%TO.N,Net-(U1-GPIO3{slash}MOSI)*%
X113390000Y-150120000D03*
%TD*%
%TO.P,SW7,1,1*%
%TO.N,Net-(U1-GPIO7{slash}SCL)*%
X160090000Y-96901500D03*
%TO.P,SW7,2,2*%
%TO.N,Net-(U1-GPIO2{slash}SCK)*%
X153740000Y-99441500D03*
%TD*%
%TO.P,SW8,1,1*%
%TO.N,Net-(U1-GPIO0{slash}TX)*%
X180430000Y-96941500D03*
%TO.P,SW8,2,2*%
%TO.N,Net-(U1-GPIO2{slash}SCK)*%
X174080000Y-99481500D03*
%TD*%
D12*
%TO.N,Net-(U1-GPIO1{slash}RX)*%
X165940000Y-73680000D03*
X118170000Y-73020000D03*
%TO.N,Net-(U1-GPIO4{slash}MISO)*%
X163620000Y-122960000D03*
X118170000Y-124110000D03*
%TO.N,Net-(U1-GPIO2{slash}SCK)*%
X165620000Y-99380000D03*
X117810000Y-99410000D03*
%TO.N,Net-(D1-DIN)*%
X127190000Y-64132500D03*
%TO.N,Net-(D2-DOUT)*%
X133230000Y-62860000D03*
X162970000Y-64500000D03*
%TO.N,Net-(D3-DOUT)*%
X153620000Y-62820000D03*
X182630000Y-63970000D03*
%TO.N,Net-(D4-DOUT)*%
X122950000Y-90110000D03*
X129300000Y-86450000D03*
%TO.N,Net-(D6-DOUT)*%
X152390000Y-89990000D03*
X133020000Y-88350000D03*
%TO.N,Net-(D7-DOUT)*%
X184320000Y-89630000D03*
X154080000Y-88540000D03*
%TO.N,Net-(D8-DOUT)*%
X124250000Y-110430000D03*
X121790000Y-115390000D03*
%TO.N,Net-(D10-DOUT)*%
X162830000Y-115010000D03*
X133330000Y-113280000D03*
%TO.N,Net-(D12-DOUT)*%
X125320000Y-137100000D03*
X169230000Y-116690000D03*
X172150000Y-113900000D03*
X123440000Y-140760000D03*
%TO.N,Net-(D14-DOUT)*%
X133370000Y-138980000D03*
X163610000Y-140830000D03*
%TO.N,Net-(U1-GPIO29{slash}ADC3{slash}A3)*%
X131910000Y-53090000D03*
%TO.N,Net-(U1-GPIO7{slash}SCL)*%
X150530000Y-49180000D03*
%TD*%
D13*
%TO.N,Net-(U1-GPIO1{slash}RX)*%
X166161500Y-73901500D02*
X174190000Y-73901500D01*
X117228500Y-73961500D02*
X118170000Y-73020000D01*
X113800000Y-73961500D02*
X117228500Y-73961500D01*
X165940000Y-73680000D02*
X166161500Y-73901500D01*
%TO.N,Net-(U1-GPIO4{slash}MISO)*%
X117638500Y-124641500D02*
X118170000Y-124110000D01*
X165371500Y-124711500D02*
X174420000Y-124711500D01*
X113360000Y-124641500D02*
X117638500Y-124641500D01*
X163620000Y-122960000D02*
X165371500Y-124711500D01*
%TO.N,Net-(U1-GPIO3{slash}MOSI)*%
X179831314Y-150200000D02*
X185322000Y-144709314D01*
X185322000Y-65684370D02*
X156707630Y-37070000D01*
X156707630Y-37070000D02*
X155630000Y-37070000D01*
X185322000Y-144709314D02*
X185322000Y-65684370D01*
X174040000Y-150200000D02*
X179831314Y-150200000D01*
%TO.N,Net-(U1-GPIO2{slash}SCK)*%
X117708500Y-99511500D02*
X117810000Y-99410000D01*
X165620000Y-99380000D02*
X165721500Y-99481500D01*
X165721500Y-99481500D02*
X174080000Y-99481500D01*
X113310000Y-99511500D02*
X117708500Y-99511500D01*
%TO.N,Net-(D1-DIN)*%
X127190000Y-47730000D02*
X140390000Y-34530000D01*
X127190000Y-64132500D02*
X127190000Y-47730000D01*
%TO.N,Net-(D2-DOUT)*%
X133230000Y-62860000D02*
X134870000Y-64500000D01*
X134870000Y-64500000D02*
X162970000Y-64500000D01*
%TO.N,Net-(D3-DOUT)*%
X153620000Y-62820000D02*
X181480000Y-62820000D01*
X181480000Y-62820000D02*
X182630000Y-63970000D01*
%TO.N,Net-(D4-DOUT)*%
X126610000Y-86450000D02*
X129300000Y-86450000D01*
X122950000Y-90110000D02*
X126610000Y-86450000D01*
%TO.N,Net-(D6-DOUT)*%
X150750000Y-88350000D02*
X152390000Y-89990000D01*
X133020000Y-88350000D02*
X150750000Y-88350000D01*
%TO.N,Net-(D7-DOUT)*%
X154080000Y-88540000D02*
X183230000Y-88540000D01*
X183230000Y-88540000D02*
X184320000Y-89630000D01*
%TO.N,Net-(D8-DOUT)*%
X124250000Y-112930000D02*
X121790000Y-115390000D01*
X124250000Y-110430000D02*
X124250000Y-112930000D01*
%TO.N,Net-(D10-DOUT)*%
X133330000Y-113280000D02*
X161100000Y-113280000D01*
X161100000Y-113280000D02*
X162830000Y-115010000D01*
%TO.N,Net-(D12-DOUT)*%
X123440000Y-138980000D02*
X123440000Y-140760000D01*
X169270000Y-116810000D02*
X169230000Y-116770000D01*
X172150000Y-113900000D02*
X172150000Y-113930000D01*
X169230000Y-116770000D02*
X169230000Y-116690000D01*
X125320000Y-137100000D02*
X123440000Y-138980000D01*
X172150000Y-113930000D02*
X169270000Y-116810000D01*
%TO.N,Net-(D14-DOUT)*%
X161760000Y-138980000D02*
X163610000Y-140830000D01*
X133370000Y-138980000D02*
X161760000Y-138980000D01*
%TO.N,Net-(U1-GPIO29{slash}ADC3{slash}A3)*%
X120150000Y-96481500D02*
X119660000Y-96971500D01*
X119660000Y-96971500D02*
X119660000Y-122051500D01*
X119710000Y-122101500D02*
X119710000Y-122300000D01*
X131910000Y-53090000D02*
X131910000Y-61090000D01*
X119660000Y-122051500D02*
X119710000Y-122101500D01*
X131910000Y-61090000D02*
X131973567Y-61153567D01*
X119710000Y-122300000D02*
X119740000Y-122330000D01*
X121705634Y-71421500D02*
X131973567Y-61153567D01*
X120150000Y-71421500D02*
X120150000Y-96481500D01*
X120150000Y-71421500D02*
X121705634Y-71421500D01*
X119740000Y-122330000D02*
X119740000Y-147580000D01*
%TO.N,Net-(U1-GPIO6{slash}SDA)*%
X139900000Y-121991500D02*
X139900000Y-131600057D01*
X139960000Y-96961500D02*
X139960000Y-105800057D01*
X139900000Y-131600057D02*
X132769000Y-138731057D01*
X132629000Y-63680500D02*
X140300000Y-71351500D01*
X132419000Y-89420500D02*
X139960000Y-96961500D01*
X139960000Y-105800057D02*
X132729000Y-113031057D01*
X132729000Y-114820500D02*
X139900000Y-121991500D01*
X140300000Y-80220057D02*
X132419000Y-88101057D01*
X140390000Y-39610000D02*
X142079000Y-41299000D01*
X142079000Y-41299000D02*
X142079000Y-53161057D01*
X132419000Y-88101057D02*
X132419000Y-89420500D01*
X132729000Y-113031057D02*
X132729000Y-114820500D01*
X140300000Y-71351500D02*
X140300000Y-80220057D01*
X132769000Y-138731057D02*
X132769000Y-140329000D01*
X132629000Y-62611057D02*
X132629000Y-63680500D01*
X132769000Y-140329000D02*
X140010000Y-147570000D01*
X142079000Y-53161057D02*
X132629000Y-62611057D01*
%TO.N,Net-(U1-GPIO7{slash}SCL)*%
X160090000Y-96901500D02*
X160090000Y-111420057D01*
X152129000Y-63899000D02*
X163218943Y-63899000D01*
X163431000Y-114761057D02*
X163431000Y-119010500D01*
X164211000Y-143489000D02*
X160040000Y-147660000D01*
X164211000Y-125752500D02*
X164211000Y-143489000D01*
X150530000Y-62300000D02*
X152129000Y-63899000D01*
X160450000Y-121991500D02*
X164211000Y-125752500D01*
X163431000Y-119010500D02*
X160450000Y-121991500D01*
X160592500Y-81177557D02*
X153479000Y-88291057D01*
X163571000Y-64251057D02*
X163571000Y-68358000D01*
X163218943Y-63899000D02*
X163571000Y-64251057D01*
X160090000Y-111420057D02*
X163431000Y-114761057D01*
X160592500Y-71336500D02*
X160592500Y-81177557D01*
X150530000Y-49180000D02*
X150530000Y-62300000D01*
X163571000Y-68358000D02*
X160592500Y-71336500D01*
X153479000Y-90290500D02*
X160090000Y-96901500D01*
X153479000Y-88291057D02*
X153479000Y-90290500D01*
%TO.N,Net-(U1-GPIO0{slash}TX)*%
X180430000Y-96941500D02*
X180430000Y-121831500D01*
X180770000Y-122171500D02*
X180770000Y-147280000D01*
X180540000Y-71361500D02*
X184921000Y-75742500D01*
X184921000Y-75742500D02*
X184921000Y-92450500D01*
X184921000Y-92450500D02*
X180430000Y-96941500D01*
X180770000Y-147280000D02*
X180390000Y-147660000D01*
X180430000Y-121831500D02*
X180770000Y-122171500D01*
%TD*%
M02*
