%TF.GenerationSoftware,KiCad,Pcbnew,9.0.7*%
%TF.CreationDate,2026-01-30T16:58:34+01:00*%
%TF.ProjectId,MacroPadv1-HackClub,4d616372-6f50-4616-9476-312d4861636b,rev?*%
%TF.SameCoordinates,Original*%
%TF.FileFunction,Copper,L1,Top*%
%TF.FilePolarity,Positive*%
%FSLAX46Y46*%
G04 Gerber Fmt 4.6, Leading zero omitted, Abs format (unit mm)*
G04 Created by KiCad (PCBNEW 9.0.7) date 2026-01-30 16:58:35*
%MOMM*%
%LPD*%
G01*
G04 APERTURE LIST*
G04 Aperture macros list*
%AMRoundRect*
0 Rectangle with rounded corners*
0 $1 Rounding radius*
0 $2 $3 $4 $5 $6 $7 $8 $9 X,Y pos of 4 corners*
0 Add a 4 corners polygon primitive as box body*
4,1,4,$2,$3,$4,$5,$6,$7,$8,$9,$2,$3,0*
0 Add four circle primitives for the rounded corners*
1,1,$1+$1,$2,$3*
1,1,$1+$1,$4,$5*
1,1,$1+$1,$6,$7*
1,1,$1+$1,$8,$9*
0 Add four rect primitives between the rounded corners*
20,1,$1+$1,$2,$3,$4,$5,0*
20,1,$1+$1,$4,$5,$6,$7,0*
20,1,$1+$1,$6,$7,$8,$9,0*
20,1,$1+$1,$8,$9,$2,$3,0*%
G04 Aperture macros list end*
%TA.AperFunction,ComponentPad*%
%ADD10C,2.200000*%
%TD*%
%TA.AperFunction,SMDPad,CuDef*%
%ADD11RoundRect,0.152400X1.063600X0.609600X-1.063600X0.609600X-1.063600X-0.609600X1.063600X-0.609600X0*%
%TD*%
%TA.AperFunction,ComponentPad*%
%ADD12C,1.524000*%
%TD*%
%TA.AperFunction,SMDPad,CuDef*%
%ADD13RoundRect,0.152400X-1.063600X-0.609600X1.063600X-0.609600X1.063600X0.609600X-1.063600X0.609600X0*%
%TD*%
%TA.AperFunction,SMDPad,CuDef*%
%ADD14RoundRect,0.082000X-0.718000X0.328000X-0.718000X-0.328000X0.718000X-0.328000X0.718000X0.328000X0*%
%TD*%
%TA.AperFunction,ViaPad*%
%ADD15C,0.600000*%
%TD*%
%TA.AperFunction,Conductor*%
%ADD16C,0.200000*%
%TD*%
G04 APERTURE END LIST*
D10*
%TO.P,SW8,1,1*%
%TO.N,Net-(U1-GPIO0{slash}TX)*%
X160262500Y-110327500D03*
%TO.P,SW8,2,2*%
%TO.N,Net-(U1-GPIO2{slash}SCK)*%
X153912500Y-112867500D03*
%TD*%
%TO.P,SW14,1,1*%
%TO.N,Net-(U1-GPIO6{slash}SDA)*%
X122052500Y-162597500D03*
%TO.P,SW14,2,2*%
%TO.N,Net-(U1-GPIO3{slash}MOSI)*%
X115702500Y-165137500D03*
%TD*%
%TO.P,SW9,1,1*%
%TO.N,Net-(U1-GPIO29{slash}ADC3{slash}A3)*%
X102822500Y-136487500D03*
%TO.P,SW9,2,2*%
%TO.N,Net-(U1-GPIO4{slash}MISO)*%
X96472500Y-139027500D03*
%TD*%
%TO.P,SW2,1,1*%
%TO.N,Net-(U1-GPIO6{slash}SDA)*%
X122102500Y-84047500D03*
%TO.P,SW2,2,2*%
%TO.N,Net-(U1-GPIO1{slash}RX)*%
X115752500Y-86587500D03*
%TD*%
%TO.P,SW1,1,1*%
%TO.N,Net-(U1-GPIO29{slash}ADC3{slash}A3)*%
X102952500Y-84047500D03*
%TO.P,SW1,2,2*%
%TO.N,Net-(U1-GPIO1{slash}RX)*%
X96602500Y-86587500D03*
%TD*%
%TO.P,SW12,1,1*%
%TO.N,Net-(U1-GPIO0{slash}TX)*%
X160482500Y-136467500D03*
%TO.P,SW12,2,2*%
%TO.N,Net-(U1-GPIO4{slash}MISO)*%
X154132500Y-139007500D03*
%TD*%
%TO.P,SW11,1,1*%
%TO.N,Net-(U1-GPIO7{slash}SCL)*%
X141232500Y-136457500D03*
%TO.P,SW11,2,2*%
%TO.N,Net-(U1-GPIO4{slash}MISO)*%
X134882500Y-138997500D03*
%TD*%
%TO.P,SW16,1,1*%
%TO.N,Net-(U1-GPIO0{slash}TX)*%
X160382500Y-162587500D03*
%TO.P,SW16,2,2*%
%TO.N,Net-(U1-GPIO3{slash}MOSI)*%
X154032500Y-165127500D03*
%TD*%
%TO.P,SW10,1,1*%
%TO.N,Net-(U1-GPIO6{slash}SDA)*%
X122042500Y-136467500D03*
%TO.P,SW10,2,2*%
%TO.N,Net-(U1-GPIO4{slash}MISO)*%
X115692500Y-139007500D03*
%TD*%
%TO.P,SW5,1,1*%
%TO.N,Net-(U1-GPIO29{slash}ADC3{slash}A3)*%
X102892500Y-110257500D03*
%TO.P,SW5,2,2*%
%TO.N,Net-(U1-GPIO2{slash}SCK)*%
X96542500Y-112797500D03*
%TD*%
%TO.P,SW7,1,1*%
%TO.N,Net-(U1-GPIO7{slash}SCL)*%
X141142500Y-110427500D03*
%TO.P,SW7,2,2*%
%TO.N,Net-(U1-GPIO2{slash}SCK)*%
X134792500Y-112967500D03*
%TD*%
%TO.P,SW15,1,1*%
%TO.N,Net-(U1-GPIO7{slash}SCL)*%
X141172500Y-162587500D03*
%TO.P,SW15,2,2*%
%TO.N,Net-(U1-GPIO3{slash}MOSI)*%
X134822500Y-165127500D03*
%TD*%
%TO.P,SW3,1,1*%
%TO.N,Net-(U1-GPIO7{slash}SCL)*%
X141232500Y-84067500D03*
%TO.P,SW3,2,2*%
%TO.N,Net-(U1-GPIO1{slash}RX)*%
X134882500Y-86607500D03*
%TD*%
%TO.P,SW4,1,1*%
%TO.N,Net-(U1-GPIO0{slash}TX)*%
X160322500Y-84107500D03*
%TO.P,SW4,2,2*%
%TO.N,Net-(U1-GPIO1{slash}RX)*%
X153972500Y-86647500D03*
%TD*%
%TO.P,SW13,1,1*%
%TO.N,Net-(U1-GPIO29{slash}ADC3{slash}A3)*%
X102812500Y-162597500D03*
%TO.P,SW13,2,2*%
%TO.N,Net-(U1-GPIO3{slash}MOSI)*%
X96462500Y-165137500D03*
%TD*%
%TO.P,SW6,1,1*%
%TO.N,Net-(U1-GPIO6{slash}SDA)*%
X122022500Y-110227500D03*
%TO.P,SW6,2,2*%
%TO.N,Net-(U1-GPIO2{slash}SCK)*%
X115672500Y-112767500D03*
%TD*%
D11*
%TO.P,U1,1,GPIO26/ADC0/A0*%
%TO.N,unconnected-(U1-GPIO26{slash}ADC0{slash}A0-Pad1)*%
X121225000Y-53950000D03*
D12*
X122060000Y-53950000D03*
D11*
%TO.P,U1,2,GPIO27/ADC1/A1*%
%TO.N,unconnected-(U1-GPIO27{slash}ADC1{slash}A1-Pad2)*%
X121225000Y-56490000D03*
D12*
X122060000Y-56490000D03*
D11*
%TO.P,U1,3,GPIO28/ADC2/A2*%
%TO.N,Net-(D1-DIN)*%
X121225000Y-59030000D03*
D12*
X122060000Y-59030000D03*
D11*
%TO.P,U1,4,GPIO29/ADC3/A3*%
%TO.N,Net-(U1-GPIO29{slash}ADC3{slash}A3)*%
X121225000Y-61570000D03*
D12*
X122060000Y-61570000D03*
D11*
%TO.P,U1,5,GPIO6/SDA*%
%TO.N,Net-(U1-GPIO6{slash}SDA)*%
X121225000Y-64110000D03*
D12*
X122060000Y-64110000D03*
D11*
%TO.P,U1,6,GPIO7/SCL*%
%TO.N,Net-(U1-GPIO7{slash}SCL)*%
X121225000Y-66650000D03*
D12*
X122060000Y-66650000D03*
D11*
%TO.P,U1,7,GPIO0/TX*%
%TO.N,Net-(U1-GPIO0{slash}TX)*%
X121225000Y-69190000D03*
D12*
X122060000Y-69190000D03*
%TO.P,U1,8,GPIO1/RX*%
%TO.N,Net-(U1-GPIO1{slash}RX)*%
X137300000Y-69190000D03*
D13*
X138135000Y-69190000D03*
D12*
%TO.P,U1,9,GPIO2/SCK*%
%TO.N,Net-(U1-GPIO2{slash}SCK)*%
X137300000Y-66650000D03*
D13*
X138135000Y-66650000D03*
D12*
%TO.P,U1,10,GPIO4/MISO*%
%TO.N,Net-(U1-GPIO4{slash}MISO)*%
X137300000Y-64110000D03*
D13*
X138135000Y-64110000D03*
D12*
%TO.P,U1,11,GPIO3/MOSI*%
%TO.N,Net-(U1-GPIO3{slash}MOSI)*%
X137300000Y-61570000D03*
D13*
X138135000Y-61570000D03*
D12*
%TO.P,U1,12,3V3*%
%TO.N,unconnected-(U1-3V3-Pad12)*%
X137300000Y-59030000D03*
D13*
X138135000Y-59030000D03*
D12*
%TO.P,U1,13,GND*%
%TO.N,GND*%
X137300000Y-56490000D03*
D13*
X138135000Y-56490000D03*
D12*
%TO.P,U1,14,VBUS*%
%TO.N,+5V*%
X137300000Y-53950000D03*
D13*
X138135000Y-53950000D03*
%TD*%
D14*
%TO.P,D1,1,DOUT*%
%TO.N,Net-(D1-DOUT)*%
X102890000Y-74540000D03*
%TO.P,D1,2,VSS*%
%TO.N,GND*%
X102890000Y-76040000D03*
%TO.P,D1,3,DIN*%
%TO.N,Net-(D1-DIN)*%
X97690000Y-76040000D03*
%TO.P,D1,4,VDD*%
%TO.N,+5V*%
X97690000Y-74540000D03*
%TD*%
%TO.P,D12,1,DOUT*%
%TO.N,Net-(D12-DOUT)*%
X160420000Y-126770000D03*
%TO.P,D12,2,VSS*%
%TO.N,GND*%
X160420000Y-128270000D03*
%TO.P,D12,3,DIN*%
%TO.N,Net-(D11-DOUT)*%
X155220000Y-128270000D03*
%TO.P,D12,4,VDD*%
%TO.N,+5V*%
X155220000Y-126770000D03*
%TD*%
%TO.P,D9,1,DOUT*%
%TO.N,Net-(D10-DIN)*%
X102900000Y-126770000D03*
%TO.P,D9,2,VSS*%
%TO.N,GND*%
X102900000Y-128270000D03*
%TO.P,D9,3,DIN*%
%TO.N,Net-(D8-DOUT)*%
X97700000Y-128270000D03*
%TO.P,D9,4,VDD*%
%TO.N,+5V*%
X97700000Y-126770000D03*
%TD*%
%TO.P,D16,1,DOUT*%
%TO.N,unconnected-(D16-DOUT-Pad1)*%
X160480000Y-152880000D03*
%TO.P,D16,2,VSS*%
%TO.N,GND*%
X160480000Y-154380000D03*
%TO.P,D16,3,DIN*%
%TO.N,Net-(D15-DOUT)*%
X155280000Y-154380000D03*
%TO.P,D16,4,VDD*%
%TO.N,+5V*%
X155280000Y-152880000D03*
%TD*%
%TO.P,D4,1,DOUT*%
%TO.N,Net-(D4-DOUT)*%
X160440000Y-74540000D03*
%TO.P,D4,2,VSS*%
%TO.N,GND*%
X160440000Y-76040000D03*
%TO.P,D4,3,DIN*%
%TO.N,Net-(D3-DOUT)*%
X155240000Y-76040000D03*
%TO.P,D4,4,VDD*%
%TO.N,+5V*%
X155240000Y-74540000D03*
%TD*%
%TO.P,D8,1,DOUT*%
%TO.N,Net-(D8-DOUT)*%
X160360000Y-100550000D03*
%TO.P,D8,2,VSS*%
%TO.N,GND*%
X160360000Y-102050000D03*
%TO.P,D8,3,DIN*%
%TO.N,Net-(D7-DOUT)*%
X155160000Y-102050000D03*
%TO.P,D8,4,VDD*%
%TO.N,+5V*%
X155160000Y-100550000D03*
%TD*%
%TO.P,D3,1,DOUT*%
%TO.N,Net-(D3-DOUT)*%
X141420000Y-74540000D03*
%TO.P,D3,2,VSS*%
%TO.N,GND*%
X141420000Y-76040000D03*
%TO.P,D3,3,DIN*%
%TO.N,Net-(D2-DOUT)*%
X136220000Y-76040000D03*
%TO.P,D3,4,VDD*%
%TO.N,+5V*%
X136220000Y-74540000D03*
%TD*%
%TO.P,D2,1,DOUT*%
%TO.N,Net-(D2-DOUT)*%
X122212500Y-74577499D03*
%TO.P,D2,2,VSS*%
%TO.N,GND*%
X122212500Y-76077499D03*
%TO.P,D2,3,DIN*%
%TO.N,Net-(D1-DOUT)*%
X117012500Y-76077499D03*
%TO.P,D2,4,VDD*%
%TO.N,+5V*%
X117012500Y-74577499D03*
%TD*%
%TO.P,D5,1,DOUT*%
%TO.N,Net-(D5-DOUT)*%
X103010000Y-100550000D03*
%TO.P,D5,2,VSS*%
%TO.N,GND*%
X103010000Y-102050000D03*
%TO.P,D5,3,DIN*%
%TO.N,Net-(D4-DOUT)*%
X97810000Y-102050000D03*
%TO.P,D5,4,VDD*%
%TO.N,+5V*%
X97810000Y-100550000D03*
%TD*%
%TO.P,D11,1,DOUT*%
%TO.N,Net-(D11-DOUT)*%
X141270000Y-126740000D03*
%TO.P,D11,2,VSS*%
%TO.N,GND*%
X141270000Y-128240000D03*
%TO.P,D11,3,DIN*%
%TO.N,Net-(D10-DOUT)*%
X136070000Y-128240000D03*
%TO.P,D11,4,VDD*%
%TO.N,+5V*%
X136070000Y-126740000D03*
%TD*%
%TO.P,D15,1,DOUT*%
%TO.N,Net-(D15-DOUT)*%
X141220000Y-152910000D03*
%TO.P,D15,2,VSS*%
%TO.N,GND*%
X141220000Y-154410000D03*
%TO.P,D15,3,DIN*%
%TO.N,Net-(D14-DOUT)*%
X136020000Y-154410000D03*
%TO.P,D15,4,VDD*%
%TO.N,+5V*%
X136020000Y-152910000D03*
%TD*%
%TO.P,D14,1,DOUT*%
%TO.N,Net-(D14-DOUT)*%
X122030000Y-152910000D03*
%TO.P,D14,2,VSS*%
%TO.N,GND*%
X122030000Y-154410000D03*
%TO.P,D14,3,DIN*%
%TO.N,Net-(D13-DOUT)*%
X116830000Y-154410000D03*
%TO.P,D14,4,VDD*%
%TO.N,+5V*%
X116830000Y-152910000D03*
%TD*%
%TO.P,D10,1,DOUT*%
%TO.N,Net-(D10-DOUT)*%
X122080000Y-126770000D03*
%TO.P,D10,2,VSS*%
%TO.N,GND*%
X122080000Y-128270000D03*
%TO.P,D10,3,DIN*%
%TO.N,Net-(D10-DIN)*%
X116880000Y-128270000D03*
%TO.P,D10,4,VDD*%
%TO.N,+5V*%
X116880000Y-126770000D03*
%TD*%
%TO.P,D13,1,DOUT*%
%TO.N,Net-(D13-DOUT)*%
X102820000Y-152920000D03*
%TO.P,D13,2,VSS*%
%TO.N,GND*%
X102820000Y-154420000D03*
%TO.P,D13,3,DIN*%
%TO.N,Net-(D12-DOUT)*%
X97620000Y-154420000D03*
%TO.P,D13,4,VDD*%
%TO.N,+5V*%
X97620000Y-152920000D03*
%TD*%
%TO.P,D6,1,DOUT*%
%TO.N,Net-(D6-DOUT)*%
X122060000Y-100550000D03*
%TO.P,D6,2,VSS*%
%TO.N,GND*%
X122060000Y-102050000D03*
%TO.P,D6,3,DIN*%
%TO.N,Net-(D5-DOUT)*%
X116860000Y-102050000D03*
%TO.P,D6,4,VDD*%
%TO.N,+5V*%
X116860000Y-100550000D03*
%TD*%
%TO.P,D7,1,DOUT*%
%TO.N,Net-(D7-DOUT)*%
X141132500Y-100537500D03*
%TO.P,D7,2,VSS*%
%TO.N,GND*%
X141132500Y-102037500D03*
%TO.P,D7,3,DIN*%
%TO.N,Net-(D6-DOUT)*%
X135932500Y-102037500D03*
%TO.P,D7,4,VDD*%
%TO.N,+5V*%
X135932500Y-100537500D03*
%TD*%
D15*
%TO.N,GND*%
X132830000Y-77030000D03*
%TO.N,Net-(U1-GPIO1{slash}RX)*%
X161260000Y-86560000D03*
X123280000Y-86600000D03*
X142260000Y-86690000D03*
X104600000Y-86650000D03*
%TO.N,Net-(U1-GPIO4{slash}MISO)*%
X123580000Y-139000000D03*
X142520000Y-138950000D03*
X104950000Y-139000000D03*
X161322000Y-139040000D03*
%TO.N,Net-(U1-GPIO2{slash}SCK)*%
X161220000Y-112890000D03*
X123010000Y-112890000D03*
X142080000Y-112890000D03*
X104250000Y-112750000D03*
%TD*%
D16*
%TO.N,+5V*%
X161942000Y-74452086D02*
X160369914Y-72880000D01*
X117012500Y-74577499D02*
X117010000Y-74574999D01*
X97810000Y-100550000D02*
X97810000Y-99260000D01*
X136580000Y-72440000D02*
X136560000Y-72420000D01*
X136070000Y-126740000D02*
X134320000Y-124990000D01*
X114797000Y-60093000D02*
X102270000Y-72620000D01*
X151150000Y-100550000D02*
X155160000Y-100550000D01*
X97680000Y-125620000D02*
X98390000Y-124910000D01*
X153140000Y-72440000D02*
X136580000Y-72440000D01*
X155280000Y-152880000D02*
X155280000Y-147591530D01*
X153530000Y-126770000D02*
X155220000Y-126770000D01*
X97620000Y-151930000D02*
X98420000Y-151130000D01*
X159029914Y-123790000D02*
X155220000Y-123790000D01*
X116880000Y-126770000D02*
X115030000Y-124920000D01*
X105297499Y-74577499D02*
X103340000Y-72620000D01*
X136560000Y-72420000D02*
X136220000Y-72760000D01*
X156310000Y-94250000D02*
X156310000Y-94041530D01*
X155240000Y-74540000D02*
X153580000Y-72880000D01*
X115080000Y-151160000D02*
X115080000Y-151130000D01*
X98190000Y-72620000D02*
X97690000Y-73120000D01*
X156310000Y-94041530D02*
X161942000Y-88409530D01*
X131157000Y-60093000D02*
X114797000Y-60093000D01*
X97690000Y-73120000D02*
X97690000Y-74540000D01*
X117010000Y-74574999D02*
X117010000Y-72990000D01*
X114990000Y-98680000D02*
X114990000Y-98460000D01*
X98390000Y-124910000D02*
X115030000Y-124910000D01*
X136220000Y-73110000D02*
X136220000Y-74540000D01*
X98610000Y-98460000D02*
X114990000Y-98460000D01*
X115030000Y-124910000D02*
X134320000Y-124910000D01*
X98420000Y-151130000D02*
X115080000Y-151130000D01*
X161922000Y-140949530D02*
X161922000Y-126682086D01*
X134320000Y-124910000D02*
X151670000Y-124910000D01*
X134320000Y-124990000D02*
X134320000Y-124910000D01*
X137300000Y-53950000D02*
X131157000Y-60093000D01*
X115080000Y-151130000D02*
X134350000Y-151130000D01*
X155220000Y-121291530D02*
X161862000Y-114649530D01*
X153530000Y-151130000D02*
X155280000Y-152880000D01*
X151670000Y-124910000D02*
X153530000Y-126770000D01*
X133870000Y-98475000D02*
X133870000Y-98460000D01*
X117010000Y-72990000D02*
X136100000Y-72990000D01*
X102270000Y-72620000D02*
X98190000Y-72620000D01*
X149060000Y-98460000D02*
X151150000Y-100550000D01*
X103340000Y-72620000D02*
X102270000Y-72620000D01*
X115030000Y-124920000D02*
X115030000Y-124910000D01*
X155220000Y-123790000D02*
X155220000Y-121291530D01*
X136100000Y-72990000D02*
X136220000Y-73110000D01*
X161862000Y-114649530D02*
X161862000Y-99802000D01*
X155280000Y-147591530D02*
X161922000Y-140949530D01*
X155220000Y-126770000D02*
X155220000Y-123790000D01*
X161942000Y-88409530D02*
X161942000Y-74452086D01*
X97700000Y-125640000D02*
X97680000Y-125620000D01*
X153580000Y-72880000D02*
X153140000Y-72440000D01*
X155160000Y-100550000D02*
X155160000Y-99630000D01*
X134350000Y-151240000D02*
X134350000Y-151130000D01*
X135932500Y-100537500D02*
X133870000Y-98475000D01*
X117012500Y-74577499D02*
X105297499Y-74577499D01*
X116860000Y-100550000D02*
X114990000Y-98680000D01*
X116830000Y-152910000D02*
X115080000Y-151160000D01*
X97620000Y-152920000D02*
X97620000Y-151930000D01*
X136020000Y-152910000D02*
X134350000Y-151240000D01*
X97700000Y-126770000D02*
X97700000Y-125640000D01*
X97810000Y-99260000D02*
X98610000Y-98460000D01*
X161862000Y-99802000D02*
X156310000Y-94250000D01*
X156310000Y-98480000D02*
X156310000Y-94250000D01*
X114990000Y-98460000D02*
X133870000Y-98460000D01*
X160369914Y-72880000D02*
X153580000Y-72880000D01*
X133870000Y-98460000D02*
X149060000Y-98460000D01*
X161922000Y-126682086D02*
X159029914Y-123790000D01*
X134350000Y-151130000D02*
X153530000Y-151130000D01*
X155160000Y-99630000D02*
X156310000Y-98480000D01*
X136220000Y-72760000D02*
X136220000Y-73110000D01*
%TO.N,GND*%
X159330000Y-157080000D02*
X160480000Y-155930000D01*
X124600000Y-157080000D02*
X143810000Y-157080000D01*
X98440086Y-156830000D02*
X94001500Y-152391414D01*
X143810000Y-157000000D02*
X143810000Y-157080000D01*
X104870000Y-130240000D02*
X104390000Y-129760000D01*
X105290000Y-78440000D02*
X122130000Y-78440000D01*
X104680000Y-103720000D02*
X105350000Y-104390000D01*
X94131500Y-99961414D02*
X97890086Y-103720000D01*
X124600000Y-156980000D02*
X124600000Y-157080000D01*
X103263686Y-77945000D02*
X94131500Y-87077186D01*
X94001500Y-125120000D02*
X94071500Y-125050000D01*
X141220000Y-154410000D02*
X143810000Y-157000000D01*
X104390000Y-129760000D02*
X97600086Y-129760000D01*
X141270000Y-128240000D02*
X143250000Y-130220000D01*
X94071500Y-126231414D02*
X94071500Y-125050000D01*
X124355001Y-78220000D02*
X143600000Y-78220000D01*
X122060000Y-102050000D02*
X124340000Y-104330000D01*
X94131500Y-87077186D02*
X94131500Y-99700000D01*
X160440000Y-78160000D02*
X160440000Y-76040000D01*
X122212500Y-76077499D02*
X123165001Y-77030000D01*
X143250000Y-130240000D02*
X124040000Y-130240000D01*
X160420000Y-128270000D02*
X160420000Y-129670000D01*
X122212500Y-78357500D02*
X122212500Y-76077499D01*
X105230000Y-156830000D02*
X98440086Y-156830000D01*
X94071500Y-99760000D02*
X94131500Y-99700000D01*
X124040000Y-130240000D02*
X104870000Y-130240000D01*
X160360000Y-103270000D02*
X160360000Y-102050000D01*
X103010000Y-102050000D02*
X104680000Y-103720000D01*
X105230000Y-156830000D02*
X105480000Y-157080000D01*
X124040000Y-130230000D02*
X124040000Y-130240000D01*
X159970000Y-130240000D02*
X143250000Y-130240000D01*
X160480000Y-129730000D02*
X159970000Y-130240000D01*
X102890000Y-76040000D02*
X104795000Y-77945000D01*
X160420000Y-129670000D02*
X160480000Y-129730000D01*
X105350000Y-104390000D02*
X124340000Y-104390000D01*
X94001500Y-152391414D02*
X94001500Y-125120000D01*
X104795000Y-77945000D02*
X103263686Y-77945000D01*
X141957500Y-102037500D02*
X144310000Y-104390000D01*
X122030000Y-154410000D02*
X124600000Y-156980000D01*
X143600000Y-78220000D02*
X143880000Y-78500000D01*
X143810000Y-157080000D02*
X159330000Y-157080000D01*
X97890086Y-103720000D02*
X104680000Y-103720000D01*
X160100000Y-78500000D02*
X160440000Y-78160000D01*
X122130000Y-78440000D02*
X122212500Y-78357500D01*
X124340000Y-104330000D02*
X124340000Y-104390000D01*
X124340000Y-104390000D02*
X144310000Y-104390000D01*
X141420000Y-76040000D02*
X143600000Y-78220000D01*
X141132500Y-102037500D02*
X141957500Y-102037500D01*
X105480000Y-157080000D02*
X124600000Y-157080000D01*
X97600086Y-129760000D02*
X94071500Y-126231414D01*
X144310000Y-104390000D02*
X159240000Y-104390000D01*
X94131500Y-99700000D02*
X94131500Y-99961414D01*
X102820000Y-154420000D02*
X105230000Y-156830000D01*
X143250000Y-130220000D02*
X143250000Y-130240000D01*
X159240000Y-104390000D02*
X160360000Y-103270000D01*
X122212500Y-76077499D02*
X124355001Y-78220000D01*
X122080000Y-128270000D02*
X124040000Y-130230000D01*
X160480000Y-155930000D02*
X160480000Y-154380000D01*
X104390000Y-129760000D02*
X102900000Y-128270000D01*
X143880000Y-78500000D02*
X160100000Y-78500000D01*
X104795000Y-77945000D02*
X105290000Y-78440000D01*
X123165001Y-77030000D02*
X132830000Y-77030000D01*
X94071500Y-125050000D02*
X94071500Y-99760000D01*
%TO.N,Net-(U1-GPIO1{slash}RX)*%
X142260000Y-86690000D02*
X142177500Y-86607500D01*
X161172500Y-86647500D02*
X161260000Y-86560000D01*
X104600000Y-86650000D02*
X104537500Y-86587500D01*
X123280000Y-86600000D02*
X123267500Y-86587500D01*
X142177500Y-86607500D02*
X134882500Y-86607500D01*
X104537500Y-86587500D02*
X96602500Y-86587500D01*
X153972500Y-86647500D02*
X161172500Y-86647500D01*
X123267500Y-86587500D02*
X115752500Y-86587500D01*
%TO.N,Net-(U1-GPIO4{slash}MISO)*%
X142520000Y-138950000D02*
X142472500Y-138997500D01*
X154132500Y-139007500D02*
X161289500Y-139007500D01*
X123580000Y-139000000D02*
X123572500Y-139007500D01*
X161289500Y-139007500D02*
X161322000Y-139040000D01*
X123572500Y-139007500D02*
X115692500Y-139007500D01*
X142472500Y-138997500D02*
X134882500Y-138997500D01*
X100090000Y-139000000D02*
X100062500Y-139027500D01*
X100062500Y-139027500D02*
X96472500Y-139027500D01*
X104950000Y-139000000D02*
X100090000Y-139000000D01*
%TO.N,Net-(U1-GPIO2{slash}SCK)*%
X122887500Y-112767500D02*
X115672500Y-112767500D01*
X161197500Y-112867500D02*
X161220000Y-112890000D01*
X104250000Y-112750000D02*
X104202500Y-112797500D01*
X142080000Y-112890000D02*
X142002500Y-112967500D01*
X104202500Y-112797500D02*
X96542500Y-112797500D01*
X123010000Y-112890000D02*
X122887500Y-112767500D01*
X153912500Y-112867500D02*
X161197500Y-112867500D01*
X142002500Y-112967500D02*
X134792500Y-112967500D01*
%TO.N,Net-(D1-DIN)*%
X96589000Y-73653900D02*
X111212900Y-59030000D01*
X97690000Y-76040000D02*
X97600086Y-76040000D01*
X111212900Y-59030000D02*
X122060000Y-59030000D01*
X97600086Y-76040000D02*
X96589000Y-75028914D01*
X96589000Y-75028914D02*
X96589000Y-73653900D01*
%TO.N,Net-(D1-DOUT)*%
X103690000Y-74540000D02*
X105227499Y-76077499D01*
X105227499Y-76077499D02*
X117012500Y-76077499D01*
X102890000Y-74540000D02*
X103690000Y-74540000D01*
%TO.N,Net-(D2-DOUT)*%
X122212500Y-74577499D02*
X123012500Y-74577499D01*
X123012500Y-74577499D02*
X124475001Y-76040000D01*
X124475001Y-76040000D02*
X136220000Y-76040000D01*
%TO.N,Net-(D3-DOUT)*%
X141420000Y-74540000D02*
X142220000Y-74540000D01*
X143720000Y-76040000D02*
X155240000Y-76040000D01*
X142220000Y-74540000D02*
X143720000Y-76040000D01*
%TO.N,Net-(D4-DOUT)*%
X160529914Y-74540000D02*
X160440000Y-74540000D01*
X97810000Y-102050000D02*
X97713640Y-102050000D01*
X161541000Y-75551086D02*
X160529914Y-74540000D01*
X110275030Y-82646500D02*
X156520600Y-82646500D01*
X96709000Y-96212530D02*
X110275030Y-82646500D01*
X96709000Y-101045360D02*
X96709000Y-96212530D01*
X156520600Y-82646500D02*
X161541000Y-77626100D01*
X97713640Y-102050000D02*
X96709000Y-101045360D01*
X161541000Y-77626100D02*
X161541000Y-75551086D01*
%TO.N,Net-(D5-DOUT)*%
X105310000Y-102050000D02*
X116860000Y-102050000D01*
X103810000Y-100550000D02*
X105310000Y-102050000D01*
X103010000Y-100550000D02*
X103810000Y-100550000D01*
%TO.N,Net-(D6-DOUT)*%
X122860000Y-100550000D02*
X124347500Y-102037500D01*
X124347500Y-102037500D02*
X135932500Y-102037500D01*
X122060000Y-100550000D02*
X122860000Y-100550000D01*
%TO.N,Net-(D7-DOUT)*%
X143445000Y-102050000D02*
X155160000Y-102050000D01*
X141932500Y-100537500D02*
X143445000Y-102050000D01*
X141132500Y-100537500D02*
X141932500Y-100537500D01*
%TO.N,Net-(D8-DOUT)*%
X161461000Y-102736100D02*
X161461000Y-100851000D01*
X161160000Y-100550000D02*
X160360000Y-100550000D01*
X97700000Y-128270000D02*
X97610086Y-128270000D01*
X117677470Y-104791000D02*
X159406100Y-104791000D01*
X96599000Y-125869470D02*
X117677470Y-104791000D01*
X159406100Y-104791000D02*
X161461000Y-102736100D01*
X96599000Y-127258914D02*
X96599000Y-125869470D01*
X161461000Y-100851000D02*
X161160000Y-100550000D01*
X97610086Y-128270000D02*
X96599000Y-127258914D01*
%TO.N,Net-(D10-DIN)*%
X102900000Y-126770000D02*
X103700000Y-126770000D01*
X105200000Y-128270000D02*
X116880000Y-128270000D01*
X103700000Y-126770000D02*
X105200000Y-128270000D01*
%TO.N,Net-(D10-DOUT)*%
X124350000Y-128240000D02*
X136070000Y-128240000D01*
X122880000Y-126770000D02*
X124350000Y-128240000D01*
X122080000Y-126770000D02*
X122880000Y-126770000D01*
%TO.N,Net-(D11-DOUT)*%
X141270000Y-126740000D02*
X142070000Y-126740000D01*
X143600000Y-128270000D02*
X155220000Y-128270000D01*
X142070000Y-126740000D02*
X143600000Y-128270000D01*
%TO.N,Net-(D12-DOUT)*%
X161521000Y-129256100D02*
X161521000Y-127071000D01*
X96519000Y-152431086D02*
X118309086Y-130641000D01*
X161521000Y-127071000D02*
X161220000Y-126770000D01*
X160136100Y-130641000D02*
X161521000Y-129256100D01*
X97530086Y-154420000D02*
X96519000Y-153408914D01*
X97620000Y-154420000D02*
X97530086Y-154420000D01*
X96519000Y-153408914D02*
X96519000Y-152431086D01*
X118309086Y-130641000D02*
X160136100Y-130641000D01*
X161220000Y-126770000D02*
X160420000Y-126770000D01*
%TO.N,Net-(D13-DOUT)*%
X116830000Y-154410000D02*
X116030000Y-154410000D01*
X114540000Y-152920000D02*
X102820000Y-152920000D01*
X116030000Y-154410000D02*
X114540000Y-152920000D01*
%TO.N,Net-(D14-DOUT)*%
X133720000Y-152910000D02*
X122030000Y-152910000D01*
X135220000Y-154410000D02*
X133720000Y-152910000D01*
X136020000Y-154410000D02*
X135220000Y-154410000D01*
%TO.N,Net-(D15-DOUT)*%
X155280000Y-154380000D02*
X154480000Y-154380000D01*
X153010000Y-152910000D02*
X141220000Y-152910000D01*
X154480000Y-154380000D02*
X153010000Y-152910000D01*
%TD*%
M02*
