%TF.GenerationSoftware,KiCad,Pcbnew,9.0.7*%
%TF.CreationDate,2026-01-30T16:58:35+01:00*%
%TF.ProjectId,MacroPadv1-HackClub,4d616372-6f50-4616-9476-312d4861636b,rev?*%
%TF.SameCoordinates,Original*%
%TF.FileFunction,Soldermask,Top*%
%TF.FilePolarity,Negative*%
%FSLAX46Y46*%
G04 Gerber Fmt 4.6, Leading zero omitted, Abs format (unit mm)*
G04 Created by KiCad (PCBNEW 9.0.7) date 2026-01-30 16:58:35*
%MOMM*%
%LPD*%
G01*
G04 APERTURE LIST*
G04 Aperture macros list*
%AMRoundRect*
0 Rectangle with rounded corners*
0 $1 Rounding radius*
0 $2 $3 $4 $5 $6 $7 $8 $9 X,Y pos of 4 corners*
0 Add a 4 corners polygon primitive as box body*
4,1,4,$2,$3,$4,$5,$6,$7,$8,$9,$2,$3,0*
0 Add four circle primitives for the rounded corners*
1,1,$1+$1,$2,$3*
1,1,$1+$1,$4,$5*
1,1,$1+$1,$6,$7*
1,1,$1+$1,$8,$9*
0 Add four rect primitives between the rounded corners*
20,1,$1+$1,$2,$3,$4,$5,0*
20,1,$1+$1,$4,$5,$6,$7,0*
20,1,$1+$1,$6,$7,$8,$9,0*
20,1,$1+$1,$8,$9,$2,$3,0*%
G04 Aperture macros list end*
%ADD10C,1.700000*%
%ADD11C,4.000000*%
%ADD12C,2.200000*%
%ADD13RoundRect,0.152400X1.063600X0.609600X-1.063600X0.609600X-1.063600X-0.609600X1.063600X-0.609600X0*%
%ADD14C,1.524000*%
%ADD15RoundRect,0.152400X-1.063600X-0.609600X1.063600X-0.609600X1.063600X0.609600X-1.063600X0.609600X0*%
%ADD16RoundRect,0.082000X-0.718000X0.328000X-0.718000X-0.328000X0.718000X-0.328000X0.718000X0.328000X0*%
G04 APERTURE END LIST*
D10*
%TO.C,SW8*%
X152642500Y-115407500D03*
D11*
X157722500Y-115407500D03*
D10*
X162802500Y-115407500D03*
D12*
X160262500Y-110327500D03*
X153912500Y-112867500D03*
%TD*%
D10*
%TO.C,SW14*%
X114432500Y-167677500D03*
D11*
X119512500Y-167677500D03*
D10*
X124592500Y-167677500D03*
D12*
X122052500Y-162597500D03*
X115702500Y-165137500D03*
%TD*%
D10*
%TO.C,SW9*%
X95202500Y-141567500D03*
D11*
X100282500Y-141567500D03*
D10*
X105362500Y-141567500D03*
D12*
X102822500Y-136487500D03*
X96472500Y-139027500D03*
%TD*%
D10*
%TO.C,SW2*%
X114482500Y-89127500D03*
D11*
X119562500Y-89127500D03*
D10*
X124642500Y-89127500D03*
D12*
X122102500Y-84047500D03*
X115752500Y-86587500D03*
%TD*%
D10*
%TO.C,SW1*%
X95332500Y-89127500D03*
D11*
X100412500Y-89127500D03*
D10*
X105492500Y-89127500D03*
D12*
X102952500Y-84047500D03*
X96602500Y-86587500D03*
%TD*%
D10*
%TO.C,SW12*%
X152862500Y-141547500D03*
D11*
X157942500Y-141547500D03*
D10*
X163022500Y-141547500D03*
D12*
X160482500Y-136467500D03*
X154132500Y-139007500D03*
%TD*%
D10*
%TO.C,SW11*%
X133612500Y-141537500D03*
D11*
X138692500Y-141537500D03*
D10*
X143772500Y-141537500D03*
D12*
X141232500Y-136457500D03*
X134882500Y-138997500D03*
%TD*%
D10*
%TO.C,SW16*%
X152762500Y-167667500D03*
D11*
X157842500Y-167667500D03*
D10*
X162922500Y-167667500D03*
D12*
X160382500Y-162587500D03*
X154032500Y-165127500D03*
%TD*%
D10*
%TO.C,SW10*%
X114422500Y-141547500D03*
D11*
X119502500Y-141547500D03*
D10*
X124582500Y-141547500D03*
D12*
X122042500Y-136467500D03*
X115692500Y-139007500D03*
%TD*%
D10*
%TO.C,SW5*%
X95272500Y-115337500D03*
D11*
X100352500Y-115337500D03*
D10*
X105432500Y-115337500D03*
D12*
X102892500Y-110257500D03*
X96542500Y-112797500D03*
%TD*%
D10*
%TO.C,SW7*%
X133522500Y-115507500D03*
D11*
X138602500Y-115507500D03*
D10*
X143682500Y-115507500D03*
D12*
X141142500Y-110427500D03*
X134792500Y-112967500D03*
%TD*%
D10*
%TO.C,SW15*%
X133552500Y-167667500D03*
D11*
X138632500Y-167667500D03*
D10*
X143712500Y-167667500D03*
D12*
X141172500Y-162587500D03*
X134822500Y-165127500D03*
%TD*%
D10*
%TO.C,SW3*%
X133612500Y-89147500D03*
D11*
X138692500Y-89147500D03*
D10*
X143772500Y-89147500D03*
D12*
X141232500Y-84067500D03*
X134882500Y-86607500D03*
%TD*%
D10*
%TO.C,SW4*%
X152702500Y-89187500D03*
D11*
X157782500Y-89187500D03*
D10*
X162862500Y-89187500D03*
D12*
X160322500Y-84107500D03*
X153972500Y-86647500D03*
%TD*%
D10*
%TO.C,SW13*%
X95192500Y-167677500D03*
D11*
X100272500Y-167677500D03*
D10*
X105352500Y-167677500D03*
D12*
X102812500Y-162597500D03*
X96462500Y-165137500D03*
%TD*%
D10*
%TO.C,SW6*%
X114402500Y-115307500D03*
D11*
X119482500Y-115307500D03*
D10*
X124562500Y-115307500D03*
D12*
X122022500Y-110227500D03*
X115672500Y-112767500D03*
%TD*%
D13*
%TO.C,U1*%
X121225000Y-53950000D03*
D14*
X122060000Y-53950000D03*
D13*
X121225000Y-56490000D03*
D14*
X122060000Y-56490000D03*
D13*
X121225000Y-59030000D03*
D14*
X122060000Y-59030000D03*
D13*
X121225000Y-61570000D03*
D14*
X122060000Y-61570000D03*
D13*
X121225000Y-64110000D03*
D14*
X122060000Y-64110000D03*
D13*
X121225000Y-66650000D03*
D14*
X122060000Y-66650000D03*
D13*
X121225000Y-69190000D03*
D14*
X122060000Y-69190000D03*
X137300000Y-69190000D03*
D15*
X138135000Y-69190000D03*
D14*
X137300000Y-66650000D03*
D15*
X138135000Y-66650000D03*
D14*
X137300000Y-64110000D03*
D15*
X138135000Y-64110000D03*
D14*
X137300000Y-61570000D03*
D15*
X138135000Y-61570000D03*
D14*
X137300000Y-59030000D03*
D15*
X138135000Y-59030000D03*
D14*
X137300000Y-56490000D03*
D15*
X138135000Y-56490000D03*
D14*
X137300000Y-53950000D03*
D15*
X138135000Y-53950000D03*
%TD*%
D16*
%TO.C,D1*%
X102890000Y-74540000D03*
X102890000Y-76040000D03*
X97690000Y-76040000D03*
X97690000Y-74540000D03*
%TD*%
%TO.C,D12*%
X160420000Y-126770000D03*
X160420000Y-128270000D03*
X155220000Y-128270000D03*
X155220000Y-126770000D03*
%TD*%
%TO.C,D9*%
X102900000Y-126770000D03*
X102900000Y-128270000D03*
X97700000Y-128270000D03*
X97700000Y-126770000D03*
%TD*%
%TO.C,D16*%
X160480000Y-152880000D03*
X160480000Y-154380000D03*
X155280000Y-154380000D03*
X155280000Y-152880000D03*
%TD*%
%TO.C,D4*%
X160440000Y-74540000D03*
X160440000Y-76040000D03*
X155240000Y-76040000D03*
X155240000Y-74540000D03*
%TD*%
%TO.C,D8*%
X160360000Y-100550000D03*
X160360000Y-102050000D03*
X155160000Y-102050000D03*
X155160000Y-100550000D03*
%TD*%
%TO.C,D3*%
X141420000Y-74540000D03*
X141420000Y-76040000D03*
X136220000Y-76040000D03*
X136220000Y-74540000D03*
%TD*%
%TO.C,D2*%
X122212500Y-74577499D03*
X122212500Y-76077499D03*
X117012500Y-76077499D03*
X117012500Y-74577499D03*
%TD*%
%TO.C,D5*%
X103010000Y-100550000D03*
X103010000Y-102050000D03*
X97810000Y-102050000D03*
X97810000Y-100550000D03*
%TD*%
%TO.C,D11*%
X141270000Y-126740000D03*
X141270000Y-128240000D03*
X136070000Y-128240000D03*
X136070000Y-126740000D03*
%TD*%
%TO.C,D15*%
X141220000Y-152910000D03*
X141220000Y-154410000D03*
X136020000Y-154410000D03*
X136020000Y-152910000D03*
%TD*%
%TO.C,D14*%
X122030000Y-152910000D03*
X122030000Y-154410000D03*
X116830000Y-154410000D03*
X116830000Y-152910000D03*
%TD*%
%TO.C,D10*%
X122080000Y-126770000D03*
X122080000Y-128270000D03*
X116880000Y-128270000D03*
X116880000Y-126770000D03*
%TD*%
%TO.C,D13*%
X102820000Y-152920000D03*
X102820000Y-154420000D03*
X97620000Y-154420000D03*
X97620000Y-152920000D03*
%TD*%
%TO.C,D6*%
X122060000Y-100550000D03*
X122060000Y-102050000D03*
X116860000Y-102050000D03*
X116860000Y-100550000D03*
%TD*%
%TO.C,D7*%
X141132500Y-100537500D03*
X141132500Y-102037500D03*
X135932500Y-102037500D03*
X135932500Y-100537500D03*
%TD*%
M02*
