%TF.GenerationSoftware,KiCad,Pcbnew,9.0.6*%
%TF.CreationDate,2026-01-05T17:12:33+01:00*%
%TF.ProjectId,MacroPadv1-HackClub,4d616372-6f50-4616-9476-312d4861636b,rev?*%
%TF.SameCoordinates,Original*%
%TF.FileFunction,Copper,L1,Top*%
%TF.FilePolarity,Positive*%
%FSLAX46Y46*%
G04 Gerber Fmt 4.6, Leading zero omitted, Abs format (unit mm)*
G04 Created by KiCad (PCBNEW 9.0.6) date 2026-01-05 17:12:33*
%MOMM*%
%LPD*%
G01*
G04 APERTURE LIST*
G04 Aperture macros list*
%AMRoundRect*
0 Rectangle with rounded corners*
0 $1 Rounding radius*
0 $2 $3 $4 $5 $6 $7 $8 $9 X,Y pos of 4 corners*
0 Add a 4 corners polygon primitive as box body*
4,1,4,$2,$3,$4,$5,$6,$7,$8,$9,$2,$3,0*
0 Add four circle primitives for the rounded corners*
1,1,$1+$1,$2,$3*
1,1,$1+$1,$4,$5*
1,1,$1+$1,$6,$7*
1,1,$1+$1,$8,$9*
0 Add four rect primitives between the rounded corners*
20,1,$1+$1,$2,$3,$4,$5,0*
20,1,$1+$1,$4,$5,$6,$7,0*
20,1,$1+$1,$6,$7,$8,$9,0*
20,1,$1+$1,$8,$9,$2,$3,0*%
G04 Aperture macros list end*
%TA.AperFunction,SMDPad,CuDef*%
%ADD10R,1.600000X0.850000*%
%TD*%
%TA.AperFunction,ComponentPad*%
%ADD11C,2.200000*%
%TD*%
%TA.AperFunction,SMDPad,CuDef*%
%ADD12RoundRect,0.152400X1.063600X0.609600X-1.063600X0.609600X-1.063600X-0.609600X1.063600X-0.609600X0*%
%TD*%
%TA.AperFunction,ComponentPad*%
%ADD13C,1.524000*%
%TD*%
%TA.AperFunction,SMDPad,CuDef*%
%ADD14RoundRect,0.152400X-1.063600X-0.609600X1.063600X-0.609600X1.063600X0.609600X-1.063600X0.609600X0*%
%TD*%
%TA.AperFunction,ViaPad*%
%ADD15C,0.600000*%
%TD*%
%TA.AperFunction,Conductor*%
%ADD16C,0.200000*%
%TD*%
G04 APERTURE END LIST*
D10*
%TO.P,D8,1,DOUT*%
%TO.N,Net-(D8-DOUT)*%
X176350000Y-88101500D03*
%TO.P,D8,2,VSS*%
%TO.N,GND*%
X176350000Y-89851500D03*
%TO.P,D8,3,DIN*%
%TO.N,Net-(D7-DOUT)*%
X179850000Y-89851500D03*
%TO.P,D8,4,VDD*%
%TO.N,+5V*%
X179850000Y-88101500D03*
%TD*%
D11*
%TO.P,SW5,1,1*%
%TO.N,Net-(U1-GPIO29{slash}ADC3{slash}A3)*%
X119660000Y-96971500D03*
%TO.P,SW5,2,2*%
%TO.N,Net-(U1-GPIO2{slash}SCK)*%
X113310000Y-99511500D03*
%TD*%
D10*
%TO.P,D15,1,DOUT*%
%TO.N,Net-(D15-DOUT)*%
X156670000Y-138960000D03*
%TO.P,D15,2,VSS*%
%TO.N,GND*%
X156670000Y-140710000D03*
%TO.P,D15,3,DIN*%
%TO.N,Net-(D14-DOUT)*%
X160170000Y-140710000D03*
%TO.P,D15,4,VDD*%
%TO.N,+5V*%
X160170000Y-138960000D03*
%TD*%
D11*
%TO.P,SW12,1,1*%
%TO.N,Net-(U1-GPIO0{slash}TX)*%
X180770000Y-122171500D03*
%TO.P,SW12,2,2*%
%TO.N,Net-(U1-GPIO4{slash}MISO)*%
X174420000Y-124711500D03*
%TD*%
D10*
%TO.P,D2,1,DOUT*%
%TO.N,Net-(D2-DOUT)*%
X136060000Y-62806500D03*
%TO.P,D2,2,VSS*%
%TO.N,GND*%
X136060000Y-64556500D03*
%TO.P,D2,3,DIN*%
%TO.N,Net-(D1-DOUT)*%
X139560000Y-64556500D03*
%TO.P,D2,4,VDD*%
%TO.N,+5V*%
X139560000Y-62806500D03*
%TD*%
D11*
%TO.P,SW15,1,1*%
%TO.N,Net-(U1-GPIO7{slash}SCL)*%
X160040000Y-147660000D03*
%TO.P,SW15,2,2*%
%TO.N,Net-(U1-GPIO3{slash}MOSI)*%
X153690000Y-150200000D03*
%TD*%
D10*
%TO.P,D14,1,DOUT*%
%TO.N,Net-(D14-DOUT)*%
X136470000Y-138890000D03*
%TO.P,D14,2,VSS*%
%TO.N,GND*%
X136470000Y-140640000D03*
%TO.P,D14,3,DIN*%
%TO.N,Net-(D13-DOUT)*%
X139970000Y-140640000D03*
%TO.P,D14,4,VDD*%
%TO.N,+5V*%
X139970000Y-138890000D03*
%TD*%
%TO.P,D10,1,DOUT*%
%TO.N,Net-(D10-DOUT)*%
X136480000Y-113215000D03*
%TO.P,D10,2,VSS*%
%TO.N,GND*%
X136480000Y-114965000D03*
%TO.P,D10,3,DIN*%
%TO.N,Net-(D10-DIN)*%
X139980000Y-114965000D03*
%TO.P,D10,4,VDD*%
%TO.N,+5V*%
X139980000Y-113215000D03*
%TD*%
%TO.P,D7,1,DOUT*%
%TO.N,Net-(D7-DOUT)*%
X156360000Y-88425000D03*
%TO.P,D7,2,VSS*%
%TO.N,GND*%
X156360000Y-90175000D03*
%TO.P,D7,3,DIN*%
%TO.N,Net-(D6-DOUT)*%
X159860000Y-90175000D03*
%TO.P,D7,4,VDD*%
%TO.N,+5V*%
X159860000Y-88425000D03*
%TD*%
%TO.P,D11,1,DOUT*%
%TO.N,Net-(D11-DOUT)*%
X156670000Y-113285000D03*
%TO.P,D11,2,VSS*%
%TO.N,GND*%
X156670000Y-115035000D03*
%TO.P,D11,3,DIN*%
%TO.N,Net-(D10-DOUT)*%
X160170000Y-115035000D03*
%TO.P,D11,4,VDD*%
%TO.N,+5V*%
X160170000Y-113285000D03*
%TD*%
D11*
%TO.P,SW4,1,1*%
%TO.N,Net-(U1-GPIO0{slash}TX)*%
X180540000Y-71361500D03*
%TO.P,SW4,2,2*%
%TO.N,Net-(U1-GPIO1{slash}RX)*%
X174190000Y-73901500D03*
%TD*%
%TO.P,SW3,1,1*%
%TO.N,Net-(U1-GPIO7{slash}SCL)*%
X160592500Y-71336500D03*
%TO.P,SW3,2,2*%
%TO.N,Net-(U1-GPIO1{slash}RX)*%
X154242500Y-73876500D03*
%TD*%
%TO.P,SW1,1,1*%
%TO.N,Net-(U1-GPIO29{slash}ADC3{slash}A3)*%
X120150000Y-71421500D03*
%TO.P,SW1,2,2*%
%TO.N,Net-(U1-GPIO1{slash}RX)*%
X113800000Y-73961500D03*
%TD*%
%TO.P,SW16,1,1*%
%TO.N,Net-(U1-GPIO0{slash}TX)*%
X180390000Y-147660000D03*
%TO.P,SW16,2,2*%
%TO.N,Net-(U1-GPIO3{slash}MOSI)*%
X174040000Y-150200000D03*
%TD*%
D12*
%TO.P,U1,1,GPIO26/ADC0/A0*%
%TO.N,unconnected-(U1-GPIO26{slash}ADC0{slash}A0-Pad1)*%
X139555000Y-29450000D03*
D13*
X140390000Y-29450000D03*
D12*
%TO.P,U1,2,GPIO27/ADC1/A1*%
%TO.N,unconnected-(U1-GPIO27{slash}ADC1{slash}A1-Pad2)*%
X139555000Y-31990000D03*
D13*
X140390000Y-31990000D03*
D12*
%TO.P,U1,3,GPIO28/ADC2/A2*%
%TO.N,Net-(D1-DIN)*%
X139555000Y-34530000D03*
D13*
X140390000Y-34530000D03*
D12*
%TO.P,U1,4,GPIO29/ADC3/A3*%
%TO.N,Net-(U1-GPIO29{slash}ADC3{slash}A3)*%
X139555000Y-37070000D03*
D13*
X140390000Y-37070000D03*
D12*
%TO.P,U1,5,GPIO6/SDA*%
%TO.N,Net-(U1-GPIO6{slash}SDA)*%
X139555000Y-39610000D03*
D13*
X140390000Y-39610000D03*
D12*
%TO.P,U1,6,GPIO7/SCL*%
%TO.N,Net-(U1-GPIO7{slash}SCL)*%
X139555000Y-42150000D03*
D13*
X140390000Y-42150000D03*
D12*
%TO.P,U1,7,GPIO0/TX*%
%TO.N,Net-(U1-GPIO0{slash}TX)*%
X139555000Y-44690000D03*
D13*
X140390000Y-44690000D03*
%TO.P,U1,8,GPIO1/RX*%
%TO.N,Net-(U1-GPIO1{slash}RX)*%
X155630000Y-44690000D03*
D14*
X156465000Y-44690000D03*
D13*
%TO.P,U1,9,GPIO2/SCK*%
%TO.N,Net-(U1-GPIO2{slash}SCK)*%
X155630000Y-42150000D03*
D14*
X156465000Y-42150000D03*
D13*
%TO.P,U1,10,GPIO4/MISO*%
%TO.N,Net-(U1-GPIO4{slash}MISO)*%
X155630000Y-39610000D03*
D14*
X156465000Y-39610000D03*
D13*
%TO.P,U1,11,GPIO3/MOSI*%
%TO.N,Net-(U1-GPIO3{slash}MOSI)*%
X155630000Y-37070000D03*
D14*
X156465000Y-37070000D03*
D13*
%TO.P,U1,12,3V3*%
%TO.N,unconnected-(U1-3V3-Pad12)*%
X155630000Y-34530000D03*
D14*
X156465000Y-34530000D03*
D13*
%TO.P,U1,13,GND*%
%TO.N,GND*%
X155630000Y-31990000D03*
D14*
X156465000Y-31990000D03*
D13*
%TO.P,U1,14,VBUS*%
%TO.N,+5V*%
X155630000Y-29450000D03*
D14*
X156465000Y-29450000D03*
%TD*%
D10*
%TO.P,D6,1,DOUT*%
%TO.N,Net-(D6-DOUT)*%
X136190000Y-88250000D03*
%TO.P,D6,2,VSS*%
%TO.N,GND*%
X136190000Y-90000000D03*
%TO.P,D6,3,DIN*%
%TO.N,Net-(D5-DOUT)*%
X139690000Y-90000000D03*
%TO.P,D6,4,VDD*%
%TO.N,+5V*%
X139690000Y-88250000D03*
%TD*%
%TO.P,D1,1,DOUT*%
%TO.N,Net-(D1-DOUT)*%
X116350000Y-62771500D03*
%TO.P,D1,2,VSS*%
%TO.N,GND*%
X116350000Y-64521500D03*
%TO.P,D1,3,DIN*%
%TO.N,Net-(D1-DIN)*%
X119850000Y-64521500D03*
%TO.P,D1,4,VDD*%
%TO.N,+5V*%
X119850000Y-62771500D03*
%TD*%
%TO.P,D4,1,DOUT*%
%TO.N,Net-(D4-DOUT)*%
X176080000Y-62246500D03*
%TO.P,D4,2,VSS*%
%TO.N,GND*%
X176080000Y-63996500D03*
%TO.P,D4,3,DIN*%
%TO.N,Net-(D3-DOUT)*%
X179580000Y-63996500D03*
%TO.P,D4,4,VDD*%
%TO.N,+5V*%
X179580000Y-62246500D03*
%TD*%
D11*
%TO.P,SW9,1,1*%
%TO.N,Net-(U1-GPIO29{slash}ADC3{slash}A3)*%
X119710000Y-122101500D03*
%TO.P,SW9,2,2*%
%TO.N,Net-(U1-GPIO4{slash}MISO)*%
X113360000Y-124641500D03*
%TD*%
D10*
%TO.P,D3,1,DOUT*%
%TO.N,Net-(D3-DOUT)*%
X156790000Y-62796500D03*
%TO.P,D3,2,VSS*%
%TO.N,GND*%
X156790000Y-64546500D03*
%TO.P,D3,3,DIN*%
%TO.N,Net-(D2-DOUT)*%
X160290000Y-64546500D03*
%TO.P,D3,4,VDD*%
%TO.N,+5V*%
X160290000Y-62796500D03*
%TD*%
D11*
%TO.P,SW10,1,1*%
%TO.N,Net-(U1-GPIO6{slash}SDA)*%
X139900000Y-121991500D03*
%TO.P,SW10,2,2*%
%TO.N,Net-(U1-GPIO4{slash}MISO)*%
X133550000Y-124531500D03*
%TD*%
%TO.P,SW14,1,1*%
%TO.N,Net-(U1-GPIO6{slash}SDA)*%
X140010000Y-147570000D03*
%TO.P,SW14,2,2*%
%TO.N,Net-(U1-GPIO3{slash}MOSI)*%
X133660000Y-150110000D03*
%TD*%
%TO.P,SW6,1,1*%
%TO.N,Net-(U1-GPIO6{slash}SDA)*%
X139960000Y-96961500D03*
%TO.P,SW6,2,2*%
%TO.N,Net-(U1-GPIO2{slash}SCK)*%
X133610000Y-99501500D03*
%TD*%
%TO.P,SW11,1,1*%
%TO.N,Net-(U1-GPIO7{slash}SCL)*%
X160450000Y-121991500D03*
%TO.P,SW11,2,2*%
%TO.N,Net-(U1-GPIO4{slash}MISO)*%
X154100000Y-124531500D03*
%TD*%
D10*
%TO.P,D5,1,DOUT*%
%TO.N,Net-(D5-DOUT)*%
X115900000Y-88380000D03*
%TO.P,D5,2,VSS*%
%TO.N,GND*%
X115900000Y-90130000D03*
%TO.P,D5,3,DIN*%
%TO.N,Net-(D4-DOUT)*%
X119400000Y-90130000D03*
%TO.P,D5,4,VDD*%
%TO.N,+5V*%
X119400000Y-88380000D03*
%TD*%
D11*
%TO.P,SW2,1,1*%
%TO.N,Net-(U1-GPIO6{slash}SDA)*%
X140300000Y-71351500D03*
%TO.P,SW2,2,2*%
%TO.N,Net-(U1-GPIO1{slash}RX)*%
X133950000Y-73891500D03*
%TD*%
%TO.P,SW13,1,1*%
%TO.N,Net-(U1-GPIO29{slash}ADC3{slash}A3)*%
X119740000Y-147580000D03*
%TO.P,SW13,2,2*%
%TO.N,Net-(U1-GPIO3{slash}MOSI)*%
X113390000Y-150120000D03*
%TD*%
D10*
%TO.P,D16,1,DOUT*%
%TO.N,unconnected-(D16-DOUT-Pad1)*%
X176870000Y-139025000D03*
%TO.P,D16,2,VSS*%
%TO.N,GND*%
X176870000Y-140775000D03*
%TO.P,D16,3,DIN*%
%TO.N,Net-(D15-DOUT)*%
X180370000Y-140775000D03*
%TO.P,D16,4,VDD*%
%TO.N,+5V*%
X180370000Y-139025000D03*
%TD*%
%TO.P,D9,1,DOUT*%
%TO.N,Net-(D10-DIN)*%
X115620000Y-113440000D03*
%TO.P,D9,2,VSS*%
%TO.N,GND*%
X115620000Y-115190000D03*
%TO.P,D9,3,DIN*%
%TO.N,Net-(D8-DOUT)*%
X119120000Y-115190000D03*
%TO.P,D9,4,VDD*%
%TO.N,+5V*%
X119120000Y-113440000D03*
%TD*%
D11*
%TO.P,SW7,1,1*%
%TO.N,Net-(U1-GPIO7{slash}SCL)*%
X160090000Y-96901500D03*
%TO.P,SW7,2,2*%
%TO.N,Net-(U1-GPIO2{slash}SCK)*%
X153740000Y-99441500D03*
%TD*%
%TO.P,SW8,1,1*%
%TO.N,Net-(U1-GPIO0{slash}TX)*%
X180430000Y-96941500D03*
%TO.P,SW8,2,2*%
%TO.N,Net-(U1-GPIO2{slash}SCK)*%
X174080000Y-99481500D03*
%TD*%
D10*
%TO.P,D12,1,DOUT*%
%TO.N,Net-(D12-DOUT)*%
X176530000Y-113716500D03*
%TO.P,D12,2,VSS*%
%TO.N,GND*%
X176530000Y-115466500D03*
%TO.P,D12,3,DIN*%
%TO.N,Net-(D11-DOUT)*%
X180030000Y-115466500D03*
%TO.P,D12,4,VDD*%
%TO.N,+5V*%
X180030000Y-113716500D03*
%TD*%
%TO.P,D13,1,DOUT*%
%TO.N,Net-(D13-DOUT)*%
X116320000Y-138865000D03*
%TO.P,D13,2,VSS*%
%TO.N,GND*%
X116320000Y-140615000D03*
%TO.P,D13,3,DIN*%
%TO.N,Net-(D12-DOUT)*%
X119820000Y-140615000D03*
%TO.P,D13,4,VDD*%
%TO.N,+5V*%
X119820000Y-138865000D03*
%TD*%
D15*
%TO.N,Net-(U1-GPIO1{slash}RX)*%
X165940000Y-73680000D03*
X118170000Y-73020000D03*
%TO.N,Net-(U1-GPIO4{slash}MISO)*%
X163620000Y-122960000D03*
X118170000Y-124110000D03*
%TO.N,Net-(U1-GPIO2{slash}SCK)*%
X165620000Y-99380000D03*
X117810000Y-99410000D03*
%TO.N,Net-(D1-DIN)*%
X127190000Y-64132500D03*
%TO.N,Net-(D2-DOUT)*%
X133230000Y-62860000D03*
X162970000Y-64500000D03*
%TO.N,Net-(D3-DOUT)*%
X153620000Y-62820000D03*
X182630000Y-63970000D03*
%TO.N,Net-(D4-DOUT)*%
X122950000Y-90110000D03*
X129300000Y-86450000D03*
%TO.N,Net-(D6-DOUT)*%
X152390000Y-89990000D03*
X133020000Y-88350000D03*
%TO.N,Net-(D7-DOUT)*%
X184320000Y-89630000D03*
X154080000Y-88540000D03*
%TO.N,Net-(D8-DOUT)*%
X124250000Y-110430000D03*
X121790000Y-115390000D03*
%TO.N,Net-(D10-DOUT)*%
X162830000Y-115010000D03*
X133330000Y-113280000D03*
%TO.N,Net-(D12-DOUT)*%
X125320000Y-137100000D03*
X169230000Y-116690000D03*
X172150000Y-113900000D03*
X123440000Y-140760000D03*
%TO.N,Net-(D14-DOUT)*%
X133370000Y-138980000D03*
X163610000Y-140830000D03*
%TO.N,Net-(U1-GPIO29{slash}ADC3{slash}A3)*%
X131910000Y-53090000D03*
%TO.N,Net-(U1-GPIO7{slash}SCL)*%
X150530000Y-49180000D03*
%TD*%
D16*
%TO.N,+5V*%
X119400000Y-88380000D02*
X119754000Y-88380000D01*
X178923500Y-112610000D02*
X178872500Y-112559000D01*
X131466000Y-138164000D02*
X141240000Y-138164000D01*
X138700000Y-62070500D02*
X138690000Y-62080500D01*
X140566000Y-112489000D02*
X120071000Y-112489000D01*
X168160000Y-77950186D02*
X168160000Y-87375500D01*
X159330000Y-138234000D02*
X159444000Y-138234000D01*
X139980000Y-113215000D02*
X140636000Y-112559000D01*
X140626000Y-138234000D02*
X141310000Y-138234000D01*
X160290000Y-62796500D02*
X159564000Y-62070500D01*
X119850000Y-62771500D02*
X120541000Y-62080500D01*
X138713374Y-35593000D02*
X119850000Y-54456374D01*
X119820000Y-138865000D02*
X130765000Y-138865000D01*
X160464500Y-112990500D02*
X160170000Y-113285000D01*
X159860000Y-88425000D02*
X159134000Y-87699000D01*
X159444000Y-112559000D02*
X160170000Y-113285000D01*
X179850000Y-88101500D02*
X179124000Y-87375500D01*
X119850000Y-54456374D02*
X119850000Y-62771500D01*
X159370000Y-62070500D02*
X138700000Y-62070500D01*
X159134000Y-87699000D02*
X158090000Y-87699000D01*
X138964000Y-87524000D02*
X139690000Y-88250000D01*
X140636000Y-112559000D02*
X140566000Y-112489000D01*
X158413500Y-87375500D02*
X158090000Y-87699000D01*
X120610000Y-87524000D02*
X138964000Y-87524000D01*
X159564000Y-62070500D02*
X159370000Y-62070500D01*
X155630000Y-29450000D02*
X149487000Y-35593000D01*
X141310000Y-138234000D02*
X159330000Y-138234000D01*
X139970000Y-138890000D02*
X140626000Y-138234000D01*
X141240000Y-138164000D02*
X141310000Y-138234000D01*
X159444000Y-112559000D02*
X178872500Y-112559000D01*
X158090000Y-87699000D02*
X140241000Y-87699000D01*
X168160000Y-87375500D02*
X158413500Y-87375500D01*
X149487000Y-35593000D02*
X138713374Y-35593000D01*
X140241000Y-87699000D02*
X139690000Y-88250000D01*
X138834000Y-62080500D02*
X139560000Y-62806500D01*
X178854000Y-61520500D02*
X159920000Y-61520500D01*
X140636000Y-112559000D02*
X159444000Y-112559000D01*
X178484000Y-138234000D02*
X179275000Y-139025000D01*
X180030000Y-113716500D02*
X180030000Y-112610000D01*
X179580000Y-62246500D02*
X178450000Y-63376500D01*
X120541000Y-62080500D02*
X138690000Y-62080500D01*
X178450000Y-67660186D02*
X168160000Y-77950186D01*
X159920000Y-61520500D02*
X159370000Y-62070500D01*
X159330000Y-138234000D02*
X178484000Y-138234000D01*
X119754000Y-88380000D02*
X120610000Y-87524000D01*
X138690000Y-62080500D02*
X138834000Y-62080500D01*
X159444000Y-138234000D02*
X160170000Y-138960000D01*
X120071000Y-112489000D02*
X119120000Y-113440000D01*
X179124000Y-87375500D02*
X168160000Y-87375500D01*
X178450000Y-63376500D02*
X178450000Y-67660186D01*
X179275000Y-139025000D02*
X180370000Y-139025000D01*
X179580000Y-62246500D02*
X178854000Y-61520500D01*
X180030000Y-112610000D02*
X178923500Y-112610000D01*
X130765000Y-138865000D02*
X131466000Y-138164000D01*
%TO.N,GND*%
X115150000Y-63321500D02*
X115150000Y-51536374D01*
X116350000Y-64521500D02*
X115150000Y-63321500D01*
X156360000Y-90175000D02*
X155679000Y-90856000D01*
X157396000Y-141436000D02*
X156670000Y-140710000D01*
X155805000Y-115900000D02*
X137415000Y-115900000D01*
X135454000Y-115991000D02*
X116421000Y-115991000D01*
X176080000Y-63996500D02*
X174804000Y-65272500D01*
X176870000Y-140775000D02*
X176209000Y-141436000D01*
X137196000Y-141366000D02*
X136470000Y-140640000D01*
X175300500Y-90901000D02*
X154755000Y-90901000D01*
X176235500Y-115761000D02*
X157396000Y-115761000D01*
X157982000Y-30715630D02*
X156707630Y-31990000D01*
X134880000Y-65247500D02*
X135369000Y-65247500D01*
X138299374Y-28387000D02*
X157720626Y-28387000D01*
X116320000Y-140615000D02*
X114766000Y-139061000D01*
X176350000Y-89851500D02*
X175300500Y-90901000D01*
X115620000Y-115190000D02*
X114020000Y-113590000D01*
X154755000Y-90901000D02*
X154710000Y-90856000D01*
X114020000Y-100782814D02*
X115900000Y-98902814D01*
X116421000Y-115991000D02*
X115620000Y-115190000D01*
X157982000Y-28648374D02*
X157982000Y-30715630D01*
X136480000Y-114965000D02*
X135454000Y-115991000D01*
X156670000Y-115035000D02*
X155805000Y-115900000D01*
X157720626Y-28387000D02*
X157982000Y-28648374D01*
X157516000Y-65272500D02*
X156790000Y-64546500D01*
X156790000Y-64546500D02*
X156054000Y-65282500D01*
X114766000Y-116044000D02*
X115620000Y-115190000D01*
X136470000Y-140640000D02*
X135749000Y-141361000D01*
X174804000Y-65272500D02*
X157516000Y-65272500D01*
X156014000Y-141366000D02*
X137196000Y-141366000D01*
X114799000Y-75987684D02*
X116350000Y-74436684D01*
X115150000Y-51536374D02*
X138299374Y-28387000D01*
X135334000Y-90856000D02*
X136190000Y-90000000D01*
X116626000Y-90856000D02*
X135334000Y-90856000D01*
X117066000Y-141361000D02*
X116320000Y-140615000D01*
X114766000Y-139061000D02*
X114766000Y-116044000D01*
X117076000Y-65247500D02*
X134880000Y-65247500D01*
X116350000Y-64521500D02*
X117076000Y-65247500D01*
X157396000Y-115761000D02*
X156670000Y-115035000D01*
X135749000Y-141361000D02*
X117066000Y-141361000D01*
X176530000Y-115466500D02*
X176235500Y-115761000D01*
X115900000Y-90130000D02*
X114799000Y-89029000D01*
X116350000Y-74436684D02*
X116350000Y-64521500D01*
X114020000Y-113590000D02*
X114020000Y-100782814D01*
X176209000Y-141436000D02*
X157396000Y-141436000D01*
X156707630Y-31990000D02*
X155630000Y-31990000D01*
X135369000Y-65247500D02*
X136060000Y-64556500D01*
X115900000Y-98902814D02*
X115900000Y-90130000D01*
X155679000Y-90856000D02*
X154710000Y-90856000D01*
X134915000Y-65282500D02*
X134880000Y-65247500D01*
X156054000Y-65282500D02*
X134915000Y-65282500D01*
X156670000Y-140710000D02*
X156014000Y-141366000D01*
X115900000Y-90130000D02*
X116626000Y-90856000D01*
X137415000Y-115900000D02*
X136480000Y-114965000D01*
X154710000Y-90856000D02*
X135334000Y-90856000D01*
X114799000Y-89029000D02*
X114799000Y-75987684D01*
%TO.N,Net-(U1-GPIO1{slash}RX)*%
X164767043Y-44690000D02*
X155630000Y-44690000D01*
X183632000Y-63554957D02*
X164767043Y-44690000D01*
X174190000Y-73901500D02*
X179981314Y-73901500D01*
X154227500Y-73891500D02*
X154242500Y-73876500D01*
X183632000Y-70250814D02*
X183632000Y-63554957D01*
X179981314Y-73901500D02*
X183632000Y-70250814D01*
X165743500Y-73876500D02*
X165940000Y-73680000D01*
X154242500Y-73876500D02*
X165743500Y-73876500D01*
X119041500Y-73891500D02*
X133950000Y-73891500D01*
X133950000Y-73891500D02*
X154227500Y-73891500D01*
X118170000Y-73020000D02*
X119041500Y-73891500D01*
%TO.N,Net-(U1-GPIO4{slash}MISO)*%
X154100000Y-124531500D02*
X162048500Y-124531500D01*
X171400000Y-39610000D02*
X156465000Y-39610000D01*
X118170000Y-124110000D02*
X118591500Y-124531500D01*
X162048500Y-124531500D02*
X163620000Y-122960000D01*
X184921000Y-53131000D02*
X171400000Y-39610000D01*
X118591500Y-124531500D02*
X133550000Y-124531500D01*
X133550000Y-124531500D02*
X154100000Y-124531500D01*
X184921000Y-114210500D02*
X184921000Y-53131000D01*
X174420000Y-124711500D02*
X184921000Y-114210500D01*
%TO.N,Net-(U1-GPIO3{slash}MOSI)*%
X133660000Y-150110000D02*
X134100000Y-150110000D01*
X113390000Y-150120000D02*
X133650000Y-150120000D01*
X133650000Y-150120000D02*
X133660000Y-150110000D01*
X134190000Y-150200000D02*
X153690000Y-150200000D01*
X153690000Y-150200000D02*
X174040000Y-150200000D01*
X134100000Y-150110000D02*
X134190000Y-150200000D01*
%TO.N,Net-(U1-GPIO2{slash}SCK)*%
X180951000Y-73498914D02*
X184033000Y-70416914D01*
X153680000Y-99501500D02*
X153740000Y-99441500D01*
X162794143Y-42150000D02*
X155630000Y-42150000D01*
X174080000Y-99481500D02*
X178749000Y-94812500D01*
X184033000Y-63388857D02*
X162794143Y-42150000D01*
X153740000Y-99441500D02*
X165558500Y-99441500D01*
X133610000Y-99501500D02*
X153680000Y-99501500D01*
X178749000Y-94812500D02*
X178749000Y-88827500D01*
X165558500Y-99441500D02*
X165620000Y-99380000D01*
X180951000Y-88827500D02*
X180951000Y-73498914D01*
X184033000Y-70416914D02*
X184033000Y-63388857D01*
X117810000Y-99410000D02*
X117901500Y-99501500D01*
X178749000Y-88827500D02*
X180951000Y-88827500D01*
X117901500Y-99501500D02*
X133610000Y-99501500D01*
%TO.N,Net-(D1-DIN)*%
X126801000Y-64521500D02*
X127190000Y-64132500D01*
X119850000Y-64521500D02*
X126801000Y-64521500D01*
%TO.N,Net-(D1-DOUT)*%
X117111000Y-63532500D02*
X138536000Y-63532500D01*
X116350000Y-62771500D02*
X117111000Y-63532500D01*
X138536000Y-63532500D02*
X139560000Y-64556500D01*
%TO.N,Net-(D2-DOUT)*%
X162603500Y-64546500D02*
X160290000Y-64546500D01*
X162970000Y-64500000D02*
X162650000Y-64500000D01*
X162650000Y-64500000D02*
X162603500Y-64546500D01*
X136060000Y-62806500D02*
X133283500Y-62806500D01*
X133283500Y-62806500D02*
X133230000Y-62860000D01*
%TO.N,Net-(D3-DOUT)*%
X182630000Y-63970000D02*
X182603500Y-63996500D01*
X153643500Y-62796500D02*
X153620000Y-62820000D01*
X156790000Y-62796500D02*
X153643500Y-62796500D01*
X182603500Y-63996500D02*
X179580000Y-63996500D01*
%TO.N,Net-(D4-DOUT)*%
X177181000Y-63347500D02*
X176080000Y-62246500D01*
X119400000Y-90130000D02*
X122930000Y-90130000D01*
X129300000Y-86450000D02*
X155453500Y-86450000D01*
X177181000Y-64722500D02*
X177181000Y-63347500D01*
X155453500Y-86450000D02*
X177181000Y-64722500D01*
X122930000Y-90130000D02*
X122950000Y-90110000D01*
%TO.N,Net-(D5-DOUT)*%
X116794000Y-89274000D02*
X138964000Y-89274000D01*
X115900000Y-88380000D02*
X116794000Y-89274000D01*
X138964000Y-89274000D02*
X139690000Y-90000000D01*
%TO.N,Net-(D6-DOUT)*%
X159125000Y-89440000D02*
X159860000Y-90175000D01*
X136190000Y-88250000D02*
X133120000Y-88250000D01*
X152940000Y-89440000D02*
X159125000Y-89440000D01*
X133120000Y-88250000D02*
X133020000Y-88350000D01*
X152390000Y-89990000D02*
X152940000Y-89440000D01*
%TO.N,Net-(D7-DOUT)*%
X184320000Y-89630000D02*
X184098500Y-89851500D01*
X154195000Y-88425000D02*
X154080000Y-88540000D01*
X184098500Y-89851500D02*
X179850000Y-89851500D01*
X156360000Y-88425000D02*
X154195000Y-88425000D01*
%TO.N,Net-(D8-DOUT)*%
X121590000Y-115190000D02*
X119120000Y-115190000D01*
X176350000Y-88101500D02*
X177451000Y-89202500D01*
X121790000Y-115390000D02*
X121590000Y-115190000D01*
X157598500Y-110430000D02*
X124250000Y-110430000D01*
X177451000Y-90577500D02*
X157598500Y-110430000D01*
X177451000Y-89202500D02*
X177451000Y-90577500D01*
%TO.N,Net-(D10-DIN)*%
X115620000Y-113440000D02*
X116346000Y-114166000D01*
X139181000Y-114166000D02*
X139980000Y-114965000D01*
X116346000Y-114166000D02*
X139181000Y-114166000D01*
%TO.N,Net-(D10-DOUT)*%
X136480000Y-113215000D02*
X133395000Y-113215000D01*
X162805000Y-115035000D02*
X160170000Y-115035000D01*
X133395000Y-113215000D02*
X133330000Y-113280000D01*
X162830000Y-115010000D02*
X162805000Y-115035000D01*
%TO.N,Net-(D11-DOUT)*%
X157396000Y-114011000D02*
X166721000Y-114011000D01*
X167470000Y-114760000D02*
X167489500Y-114740500D01*
X156670000Y-113285000D02*
X157396000Y-114011000D01*
X166721000Y-114011000D02*
X167470000Y-114760000D01*
X167489500Y-114740500D02*
X179304000Y-114740500D01*
X179304000Y-114740500D02*
X180030000Y-115466500D01*
%TO.N,Net-(D12-DOUT)*%
X169230000Y-116690000D02*
X169230000Y-119076316D01*
X172333500Y-113716500D02*
X172150000Y-113900000D01*
X123295000Y-140615000D02*
X119820000Y-140615000D01*
X176530000Y-113716500D02*
X172333500Y-113716500D01*
X151206316Y-137100000D02*
X125320000Y-137100000D01*
X123440000Y-140760000D02*
X123295000Y-140615000D01*
X169230000Y-119076316D02*
X151206316Y-137100000D01*
%TO.N,Net-(D13-DOUT)*%
X138946000Y-139616000D02*
X139970000Y-140640000D01*
X116320000Y-138865000D02*
X117071000Y-139616000D01*
X117071000Y-139616000D02*
X138946000Y-139616000D01*
%TO.N,Net-(D14-DOUT)*%
X163490000Y-140710000D02*
X160170000Y-140710000D01*
X163610000Y-140830000D02*
X163490000Y-140710000D01*
X133460000Y-138890000D02*
X133370000Y-138980000D01*
X136470000Y-138890000D02*
X133460000Y-138890000D01*
%TO.N,Net-(D15-DOUT)*%
X156670000Y-138960000D02*
X157461000Y-139751000D01*
X179346000Y-139751000D02*
X180370000Y-140775000D01*
X157461000Y-139751000D02*
X179346000Y-139751000D01*
%TO.N,Net-(U1-GPIO29{slash}ADC3{slash}A3)*%
X140390000Y-37070000D02*
X139312370Y-37070000D01*
X131910000Y-44472370D02*
X131910000Y-53090000D01*
X139312370Y-37070000D02*
X131910000Y-44472370D01*
%TO.N,Net-(U1-GPIO7{slash}SCL)*%
X143500000Y-42150000D02*
X150530000Y-49180000D01*
X140390000Y-42150000D02*
X143500000Y-42150000D01*
%TO.N,Net-(U1-GPIO0{slash}TX)*%
X180629443Y-61119500D02*
X183231000Y-63721057D01*
X183231000Y-63721057D02*
X183231000Y-68670500D01*
X183231000Y-68670500D02*
X180540000Y-71361500D01*
X156819500Y-61119500D02*
X180629443Y-61119500D01*
X140390000Y-44690000D02*
X156819500Y-61119500D01*
%TD*%
M02*
