M48
; DRILL file {KiCad 9.0.6} date 2026-01-05T17:14:17+0100
; FORMAT={-:-/ absolute / inch / decimal}
; #@! TF.CreationDate,2026-01-05T17:14:17+01:00
; #@! TF.GenerationSoftware,Kicad,Pcbnew,9.0.6
; #@! TF.FileFunction,Plated,1,2,PTH
FMAT,2
INCH
; #@! TA.AperFunction,Plated,PTH,ViaDrill
T1C0.0118
; #@! TA.AperFunction,Plated,PTH,ComponentDrill
T2C0.0350
; #@! TA.AperFunction,Plated,PTH,ComponentDrill
T3C0.0591
%
G90
G05
T1
X4.6382Y-3.9138
X4.6524Y-2.8748
X4.6524Y-4.8862
X4.7949Y-4.5429
X4.8406Y-3.5476
X4.8598Y-5.5417
X4.8917Y-4.3476
X4.9339Y-5.3976
X5.0075Y-2.5249
X5.0906Y-3.4035
X5.1933Y-2.0902
X5.237Y-3.4783
X5.2453Y-2.4748
X5.2492Y-4.4598
X5.2508Y-5.4717
X5.9264Y-1.9362
X5.9996Y-3.5429
X6.048Y-2.4732
X6.0661Y-3.4858
X6.4106Y-4.528
X6.4161Y-2.5394
X6.4413Y-5.5445
X6.4417Y-4.8409
X6.5205Y-3.9126
X6.5331Y-2.9008
X6.6626Y-4.5941
X6.7776Y-4.4843
X7.1902Y-2.5185
X7.2567Y-3.5287
T2
X5.5272Y-1.1594
X5.5272Y-1.2594
X5.5272Y-1.3594
X5.5272Y-1.4594
X5.5272Y-1.5594
X5.5272Y-1.6594
X5.5272Y-1.7594
X6.1272Y-1.1594
X6.1272Y-1.2594
X6.1272Y-1.3594
X6.1272Y-1.4594
X6.1272Y-1.5594
X6.1272Y-1.6594
X6.1272Y-1.7594
T3
X4.461Y-3.9178
X4.463Y-4.9071
X4.4642Y-5.9102
X4.4803Y-2.9119
X4.711Y-3.8178
X4.713Y-4.8071
X4.7142Y-5.8102
X4.7303Y-2.8119
X5.2579Y-4.9028
X5.2602Y-3.9174
X5.2622Y-5.9098
X5.2736Y-2.9091
X5.5079Y-4.8028
X5.5102Y-3.8174
X5.5122Y-5.8098
X5.5236Y-2.8091
X6.0508Y-5.9134
X6.0528Y-3.915
X6.0669Y-4.9028
X6.0725Y-2.9085
X6.3008Y-5.8134
X6.3028Y-3.815
X6.3169Y-4.8028
X6.3225Y-2.8085
X6.852Y-5.9134
X6.8535Y-3.9166
X6.8579Y-2.9095
X6.8669Y-4.9099
X7.102Y-5.8134
X7.1035Y-3.8166
X7.1079Y-2.8095
X7.1169Y-4.8099
M30
